<?xml version="1.0" encoding="UTF-8"?>
<!-- Generator: visioncortex VTracer 0.6.3 -->
<svg version="1.1" xmlns="http://www.w3.org/2000/svg" width="1280" height="1280">
<path d="M0 0 C0.9 0 1.8 0 2.73 0 C3.68 -0 4.63 -0 5.61 -0.01 C8.82 -0.02 12.03 -0.02 15.24 -0.02 C17.53 -0.02 19.82 -0.03 22.11 -0.03 C28.36 -0.05 34.6 -0.05 40.84 -0.06 C44.74 -0.06 48.64 -0.06 52.54 -0.07 C63.34 -0.08 74.14 -0.09 84.93 -0.09 C85.63 -0.09 86.32 -0.09 87.03 -0.1 C87.72 -0.1 88.42 -0.1 89.13 -0.1 C90.54 -0.1 91.94 -0.1 93.35 -0.1 C94.04 -0.1 94.74 -0.1 95.46 -0.1 C106.73 -0.1 118.01 -0.12 129.29 -0.14 C140.87 -0.17 152.45 -0.18 164.03 -0.18 C170.53 -0.18 177.03 -0.19 183.53 -0.2 C189.65 -0.22 195.77 -0.22 201.89 -0.21 C204.13 -0.21 206.38 -0.22 208.62 -0.23 C211.69 -0.24 214.76 -0.23 217.83 -0.22 C219.15 -0.24 219.15 -0.24 220.51 -0.25 C229.09 -0.18 236.01 2.71 243.79 6.14 C245.57 6.87 245.57 6.87 247.39 7.61 C248.58 8.09 249.76 8.58 250.98 9.08 C252.76 9.81 252.76 9.81 254.58 10.55 C257.68 12.09 259.54 13.56 261.79 16.14 C262.45 15.81 263.11 15.48 263.79 15.14 C264.16 15.59 264.54 16.04 264.93 16.5 C267.34 19.36 269.76 22.12 272.41 24.77 C278.79 31.14 278.79 31.14 278.79 34.14 C279.45 34.14 280.11 34.14 280.79 34.14 C282.79 37.14 282.79 37.14 282.79 40.14 C283.78 40.47 284.77 40.8 285.79 41.14 C286.41 42.89 286.41 42.89 286.79 45.14 C286.97 46.05 287.16 46.96 287.35 47.89 C287.5 48.64 287.64 49.38 287.79 50.14 C288.78 50.47 289.77 50.8 290.79 51.14 C291.89 53.77 291.89 53.77 292.85 57.14 C293.19 58.33 293.53 59.51 293.88 60.73 C294.78 64.11 295.58 67.48 296.29 70.9 C296.87 73.51 297.57 76.07 298.29 78.64 C300.46 86.53 302.04 94.35 303.23 102.44 C303.66 105.09 303.66 105.09 304.79 107.12 C306.09 109.76 306.39 112.23 306.79 115.14 C307.83 122 309.09 128.62 311 135.29 C312.45 140.53 313.6 145.84 314.79 151.14 C314.97 151.94 315.16 152.73 315.35 153.55 C316.59 158.91 317.49 164.3 318.32 169.74 C318.54 172.09 318.54 172.09 319.79 173.14 C320.1 174.49 320.36 175.85 320.6 177.21 C321.64 182.67 322.98 188.05 324.38 193.43 C325.38 197.32 326.15 201.18 326.79 205.14 C327.25 207.23 327.73 209.31 328.23 211.39 C329.13 215.24 329.99 219.08 330.73 222.96 C331.74 228.17 333.05 233.3 334.38 238.44 C335.38 242.32 336.14 246.18 336.79 250.14 C337.27 252.09 337.77 254.02 338.29 255.96 C339.43 260.39 340.19 264.64 340.48 269.21 C340.69 271.19 340.69 271.19 341.72 272.96 C343.16 275.9 343.69 278.82 344.35 282.02 C344.6 283.21 344.85 284.41 345.1 285.64 C345.53 287.83 345.93 290.03 346.29 292.24 C346.79 295.13 347.44 297.93 348.16 300.77 C348.43 301.82 348.69 302.87 348.97 303.95 C349.49 305.97 350.01 307.98 350.55 309.99 C352.3 316.7 353.61 323.42 354.7 330.27 C355.34 334.15 356.29 337.52 357.79 341.14 C358.13 343.42 358.29 345.66 358.44 347.96 C358.68 350.17 358.68 350.17 359.76 352.05 C361.07 354.71 361.35 357.21 361.79 360.14 C362.25 362.23 362.73 364.31 363.23 366.39 C365.25 375.05 366.93 383.68 368.23 392.48 C368.66 395.1 368.66 395.1 369.79 397.12 C371.09 399.75 371.36 402.24 371.79 405.14 C372.25 407.23 372.73 409.31 373.23 411.39 C374.13 415.24 374.99 419.08 375.73 422.96 C376.74 428.17 378.05 433.3 379.38 438.44 C380.38 442.32 381.14 446.18 381.79 450.14 C382.27 452.09 382.77 454.02 383.29 455.96 C384.43 460.39 385.19 464.64 385.48 469.21 C385.69 471.19 385.69 471.19 386.72 472.96 C388.16 475.9 388.69 478.82 389.35 482.02 C389.6 483.21 389.85 484.41 390.1 485.64 C390.53 487.83 390.93 490.03 391.29 492.24 C391.79 495.13 392.44 497.93 393.16 500.77 C393.43 501.82 393.69 502.87 393.97 503.95 C394.49 505.97 395.01 507.98 395.55 509.99 C397.3 516.7 398.61 523.42 399.7 530.27 C400.34 534.15 401.29 537.52 402.79 541.14 C403.13 543.42 403.29 545.66 403.44 547.96 C403.68 550.17 403.68 550.17 404.76 552.05 C406.07 554.72 406.38 557.19 406.79 560.14 C407.12 562.25 407.45 564.35 407.79 566.46 C407.95 567.5 408.12 568.55 408.29 569.63 C408.53 572.07 408.53 572.07 409.79 573.14 C410.14 574.57 410.45 576.01 410.73 577.46 C410.9 578.35 411.07 579.25 411.25 580.17 C411.99 584.26 412.62 588.37 413.23 592.48 C413.66 595.1 413.66 595.1 414.79 597.12 C416.09 599.75 416.36 602.24 416.79 605.14 C417.25 607.23 417.73 609.31 418.23 611.39 C419.13 615.24 419.99 619.08 420.73 622.96 C421.74 628.17 423.05 633.3 424.38 638.44 C425.38 642.32 426.14 646.18 426.79 650.14 C427.27 652.09 427.77 654.02 428.29 655.96 C429.43 660.39 430.19 664.64 430.48 669.21 C430.69 671.19 430.69 671.19 431.72 672.96 C433.16 675.9 433.69 678.82 434.35 682.02 C434.6 683.21 434.85 684.41 435.1 685.64 C435.53 687.83 435.93 690.03 436.29 692.24 C436.79 695.13 437.44 697.93 438.16 700.77 C438.43 701.82 438.69 702.87 438.97 703.95 C439.49 705.97 440.01 707.98 440.55 709.99 C442.3 716.7 443.61 723.42 444.7 730.27 C445.34 734.15 446.26 737.53 447.79 741.14 C448.16 742.72 448.5 744.3 448.79 745.89 C450.11 752.83 451.69 759.7 453.29 766.58 C455.27 775.18 456.94 783.75 458.23 792.48 C458.66 795.1 458.66 795.1 459.79 797.12 C461.09 799.75 461.36 802.24 461.79 805.14 C462.25 807.23 462.73 809.31 463.23 811.39 C464.13 815.24 464.99 819.08 465.73 822.96 C466.74 828.17 468.05 833.3 469.38 838.44 C470.38 842.32 471.14 846.18 471.79 850.14 C472.42 853.19 473.1 856.23 473.79 859.27 C473.97 860.07 474.14 860.86 474.33 861.69 C475.11 865.18 475.92 868.67 476.79 872.14 C482.32 872.03 487.86 871.9 493.4 871.77 C495.28 871.73 497.17 871.69 499.05 871.65 C501.75 871.59 504.46 871.52 507.16 871.46 C508.01 871.44 508.86 871.43 509.73 871.41 C513.57 871.68 513.57 871.68 516.79 870.14 C516.95 868.71 517.06 867.27 517.16 865.83 C517.67 860.79 519.26 858.67 522.79 855.14 C522.79 854.15 522.79 853.16 522.79 852.14 C523.45 852.14 524.11 852.14 524.79 852.14 C524.79 851.48 524.79 850.82 524.79 850.14 C525.53 849.9 526.27 849.65 527.04 849.39 C529.86 848.33 529.86 848.33 531.6 846.14 C535.65 842.44 539.93 842.14 545.21 842.14 C551.54 842.46 556.19 842.99 561.79 846.14 C561.79 846.8 561.79 847.46 561.79 848.14 C563.11 848.14 564.43 848.14 565.79 848.14 C567.71 850.01 567.71 850.01 569.54 852.46 C570.15 853.26 570.77 854.06 571.4 854.88 C572.79 857.14 572.79 857.14 572.79 860.14 C573.45 860.14 574.11 860.14 574.79 860.14 C576.96 868.52 577.07 876.69 577.02 885.3 C577.02 886.74 577.02 888.18 577.02 889.63 C577.02 892.62 577.01 895.62 576.99 898.61 C576.98 902.46 576.97 906.31 576.97 910.15 C576.97 913.12 576.97 916.08 576.96 919.05 C576.96 920.47 576.96 921.89 576.96 923.31 C576.95 925.28 576.94 927.25 576.93 929.22 C576.93 930.34 576.93 931.47 576.92 932.62 C576.79 935.14 576.79 935.14 575.79 936.14 C575.52 937.49 575.27 938.85 575.04 940.21 C573.42 947.44 570.55 952.4 564.35 956.64 C555.89 960.94 545.04 960.03 535.79 959.14 C534.8 958.81 533.81 958.48 532.79 958.14 C532.79 957.48 532.79 956.82 532.79 956.14 C532.07 955.94 531.34 955.73 530.6 955.52 C526.87 953.69 525.35 951.4 522.79 948.14 C522.13 947.81 521.47 947.48 520.79 947.14 C519.94 945.51 519.94 945.51 519.16 943.46 C518.9 942.79 518.64 942.13 518.37 941.44 C517.66 938.63 517.75 936.04 517.79 933.14 C516.92 933.14 516.06 933.14 515.17 933.14 C463.96 933.06 412.76 932.97 361.55 932.86 C355.41 932.85 349.26 932.84 343.11 932.83 C341.28 932.82 341.28 932.82 339.4 932.82 C319.58 932.78 299.76 932.75 279.94 932.72 C259.61 932.68 239.27 932.65 218.94 932.6 C206.39 932.57 193.84 932.55 181.29 932.54 C172.69 932.53 164.08 932.51 155.48 932.48 C150.52 932.47 145.55 932.46 140.59 932.46 C136.04 932.46 131.49 932.45 126.94 932.43 C125.3 932.42 123.66 932.42 122.01 932.42 C100.76 932.45 100.76 932.45 92.79 926.14 C91.46 924.81 90.12 923.48 88.79 922.14 C87.8 921.81 86.81 921.48 85.79 921.14 C82.79 915.92 82.79 915.92 82.79 913.14 C82.13 913.14 81.47 913.14 80.79 913.14 C80.79 912.48 80.79 911.82 80.79 911.14 C80.13 911.14 79.47 911.14 78.79 911.14 C77.6 909.57 77.6 909.57 76.35 907.46 C75.69 906.36 75.69 906.36 75.02 905.24 C74.62 904.55 74.21 903.86 73.79 903.14 C72.95 901.75 72.95 901.75 72.1 900.33 C71.67 899.61 71.23 898.89 70.79 898.14 C70.13 897.15 69.47 896.16 68.79 895.14 C68.79 894.15 68.79 893.16 68.79 892.14 C67.47 892.14 66.15 892.14 64.79 892.14 C64.38 891.38 63.97 890.62 63.55 889.84 C63.01 888.85 62.47 887.85 61.91 886.83 C61.38 885.84 60.85 884.86 60.3 883.84 C58.78 881.05 58.78 881.05 56.79 878.14 C56.79 877.15 56.79 876.16 56.79 875.14 C56.07 875 55.34 874.85 54.6 874.71 C50.89 872.64 49.86 870.16 48 866.43 C46.85 864.09 46.85 864.09 45.14 862.04 C43.79 860.14 43.79 860.14 43.79 857.14 C42.47 857.14 41.15 857.14 39.79 857.14 C39.4 856.42 39.01 855.69 38.62 854.95 C34.35 845.94 34.35 845.94 27.79 838.77 C25.13 836.61 24.16 834.15 22.74 831.07 C21.79 829 21.79 829 20.04 826.83 C18.79 825.14 18.79 825.14 18.79 822.14 C17.47 822.14 16.15 822.14 14.79 822.14 C14.4 821.42 14.01 820.69 13.62 819.95 C9.35 810.94 9.35 810.94 2.79 803.77 C0.13 801.61 -0.84 799.15 -2.26 796.07 C-3.21 794 -3.21 794 -4.96 791.83 C-6.21 790.14 -6.21 790.14 -6.21 787.14 C-7.53 787.14 -8.85 787.14 -10.21 787.14 C-10.6 786.42 -10.99 785.69 -11.38 784.95 C-15.65 775.94 -15.65 775.94 -22.21 768.77 C-24.87 766.61 -25.84 764.15 -27.26 761.07 C-28.21 759 -28.21 759 -29.96 756.83 C-31.21 755.14 -31.21 755.14 -31.21 752.14 C-32.53 752.14 -33.85 752.14 -35.21 752.14 C-35.62 751.38 -36.03 750.62 -36.45 749.84 C-36.99 748.85 -37.53 747.85 -38.09 746.83 C-38.62 745.84 -39.15 744.86 -39.7 743.84 C-41.22 741.05 -41.22 741.05 -43.21 738.14 C-43.21 737.15 -43.21 736.16 -43.21 735.14 C-43.95 734.98 -44.7 734.81 -45.46 734.64 C-49.03 732.69 -49.72 730.59 -51.22 726.92 C-52.15 724.79 -52.15 724.79 -55.21 724.14 C-55.54 721.83 -55.87 719.52 -56.21 717.14 C-57.53 717.14 -58.85 717.14 -60.21 717.14 C-60.62 716.38 -61.03 715.62 -61.45 714.84 C-61.99 713.85 -62.53 712.85 -63.09 711.83 C-63.62 710.84 -64.15 709.86 -64.7 708.84 C-66.22 706.05 -66.22 706.05 -68.21 703.14 C-68.21 702.15 -68.21 701.16 -68.21 700.14 C-68.95 699.98 -69.7 699.81 -70.46 699.64 C-74.03 697.69 -74.72 695.59 -76.22 691.92 C-77.15 689.79 -77.15 689.79 -80.21 689.14 C-80.54 686.83 -80.87 684.52 -81.21 682.14 C-82.53 682.14 -83.85 682.14 -85.21 682.14 C-85.62 681.38 -86.03 680.62 -86.45 679.84 C-86.99 678.85 -87.53 677.85 -88.09 676.83 C-88.62 675.84 -89.15 674.86 -89.7 673.84 C-91.22 671.05 -91.22 671.05 -93.21 668.14 C-93.21 667.15 -93.21 666.16 -93.21 665.14 C-93.95 664.98 -94.7 664.81 -95.46 664.64 C-99.03 662.69 -99.72 660.59 -101.22 656.92 C-102.15 654.79 -102.15 654.79 -105.21 654.14 C-105.54 651.83 -105.87 649.52 -106.21 647.14 C-107.53 647.14 -108.85 647.14 -110.21 647.14 C-110.62 646.38 -111.03 645.62 -111.45 644.84 C-111.99 643.85 -112.53 642.85 -113.09 641.83 C-113.62 640.84 -114.15 639.86 -114.7 638.84 C-116.22 636.05 -116.22 636.05 -118.21 633.14 C-118.21 632.15 -118.21 631.16 -118.21 630.14 C-119.14 629.98 -120.07 629.81 -121.02 629.64 C-124.21 628.14 -124.21 628.14 -125.17 626.26 C-125.65 624.83 -126.09 623.38 -126.47 621.92 C-126.72 621.33 -126.96 620.75 -127.21 620.14 C-128.2 619.81 -129.19 619.48 -130.21 619.14 C-130.54 616.83 -130.87 614.52 -131.21 612.14 C-132.53 612.14 -133.85 612.14 -135.21 612.14 C-135.62 611.38 -136.03 610.62 -136.45 609.84 C-136.99 608.85 -137.53 607.85 -138.09 606.83 C-138.62 605.84 -139.15 604.86 -139.7 603.84 C-141.22 601.05 -141.22 601.05 -143.21 598.14 C-143.21 597.15 -143.21 596.16 -143.21 595.14 C-144.14 594.98 -145.07 594.81 -146.02 594.64 C-149.21 593.14 -149.21 593.14 -150.14 591.4 C-150.61 590 -151.06 588.59 -151.49 587.17 C-152.49 584.36 -154.32 582.42 -156.21 580.14 C-156.21 579.15 -156.21 578.16 -156.21 577.14 C-157.53 577.14 -158.85 577.14 -160.21 577.14 C-160.6 576.42 -160.99 575.69 -161.38 574.95 C-166.64 564.55 -166.64 564.55 -175.21 557.14 C-175.84 555.27 -175.84 555.27 -176.21 553.14 C-177.76 550.38 -179.45 547.78 -181.21 545.14 C-181.21 544.15 -181.21 543.16 -181.21 542.14 C-182.53 542.14 -183.85 542.14 -185.21 542.14 C-185.6 541.42 -185.99 540.69 -186.38 539.95 C-191.64 529.55 -191.64 529.55 -200.21 522.14 C-200.84 520.27 -200.84 520.27 -201.21 518.14 C-202.76 515.38 -204.45 512.78 -206.21 510.14 C-206.21 509.15 -206.21 508.16 -206.21 507.14 C-207.53 507.14 -208.85 507.14 -210.21 507.14 C-210.6 506.42 -210.99 505.69 -211.38 504.95 C-216.64 494.55 -216.64 494.55 -225.21 487.14 C-225.84 485.27 -225.84 485.27 -226.21 483.14 C-227.76 480.38 -229.45 477.78 -231.21 475.14 C-231.21 474.15 -231.21 473.16 -231.21 472.14 C-232.53 472.14 -233.85 472.14 -235.21 472.14 C-236.53 469.17 -237.85 466.2 -239.21 463.14 C-243.86 462.87 -243.86 462.87 -248.21 464.14 C-251.29 464.46 -254.37 464.65 -257.46 464.86 C-260.17 464.97 -260.17 464.97 -262.21 466.14 C-263.71 466.24 -265.21 466.27 -266.71 466.27 C-267.51 466.27 -268.3 466.27 -269.12 466.28 C-271.21 466.14 -271.21 466.14 -273.21 465.14 C-275.58 464.99 -277.96 464.87 -280.34 464.77 C-286.2 464.45 -290.88 463.55 -296.21 461.14 C-298.02 460.51 -299.83 459.89 -301.65 459.27 C-306.83 457.4 -311.5 454.98 -316.21 452.14 C-316.21 451.48 -316.21 450.82 -316.21 450.14 C-318.19 449.48 -320.17 448.82 -322.21 448.14 C-322.21 447.48 -322.21 446.82 -322.21 446.14 C-322.87 445.96 -323.53 445.77 -324.21 445.58 C-331.36 442.15 -335.78 437.02 -339.2 429.96 C-340.08 427.97 -340.08 427.97 -342.21 427.14 C-342.62 424.82 -342.96 422.49 -343.21 420.14 C-343.87 420.14 -344.53 420.14 -345.21 420.14 C-348.47 413.98 -350.97 407.74 -353.21 401.14 C-353.6 400.01 -354 398.87 -354.4 397.71 C-357.19 385.46 -357.05 371.53 -355.21 359.14 C-354.55 358.15 -353.89 357.16 -353.21 356.14 C-352.87 353.81 -352.54 351.48 -352.21 349.14 C-351.21 346.89 -351.21 346.89 -350.21 345.14 C-349.88 344.15 -349.55 343.16 -349.21 342.14 C-348.55 342.14 -347.89 342.14 -347.21 342.14 C-347.25 341.36 -347.29 340.58 -347.34 339.77 C-347.21 337.14 -347.21 337.14 -345.21 335.14 C-344.88 334.48 -344.55 333.82 -344.21 333.14 C-343.74 332.52 -343.26 331.91 -342.77 331.27 C-340.6 328.4 -340.6 328.4 -339.21 325.14 C-340.53 322.5 -340.53 322.5 -342.21 320.14 C-342.21 319.48 -342.21 318.82 -342.21 318.14 C-342.87 318.14 -343.53 318.14 -344.21 318.14 C-344.71 316.66 -344.71 316.66 -345.21 315.14 C-345.87 314.5 -346.53 313.86 -347.21 313.21 C-349.27 311.09 -349.8 310.01 -350.21 307.14 C-350.87 307.14 -351.53 307.14 -352.21 307.14 C-352.21 306.15 -352.21 305.16 -352.21 304.14 C-352.87 303.81 -353.53 303.48 -354.21 303.14 C-354.66 300.67 -355.01 298.27 -355.27 295.77 C-355.87 290.38 -355.87 290.38 -357.21 285.14 C-356.55 285.14 -355.89 285.14 -355.21 285.14 C-355.21 283.49 -355.21 281.84 -355.21 280.14 C-354.55 280.14 -353.89 280.14 -353.21 280.14 C-353.15 279.19 -353.09 278.25 -353.02 277.27 C-352.62 275.72 -352.62 275.72 -352.21 274.14 C-350.56 273.44 -348.89 272.77 -347.21 272.14 C-347.13 271.36 -347.05 270.58 -346.96 269.77 C-346.21 267.14 -346.21 267.14 -344.3 266 C-341.96 264.98 -339.59 264.06 -337.21 263.14 C-336.52 262.78 -335.82 262.41 -335.11 262.03 C-333.21 261.14 -333.21 261.14 -330.21 261.14 C-329.36 261.09 -328.52 261.03 -327.65 260.97 C-317.4 260.5 -310.12 263.75 -302.54 270.59 C-300.61 272.84 -300 275.32 -299.21 278.14 C-298.22 278.47 -297.23 278.8 -296.21 279.14 C-294.49 281.36 -294.49 281.36 -292.71 284.08 C-290.63 287.26 -289.41 289.01 -286.21 291.14 C-282.57 290.83 -282.57 290.83 -279.21 290.14 C-279.21 289.81 -279.21 289.48 -279.21 289.14 C-276.38 289.09 -273.55 289.05 -270.71 289.02 C-269.92 289 -269.13 288.98 -268.31 288.97 C-262.91 288.92 -258.41 289.71 -253.21 291.14 C-252.22 291.14 -251.23 291.14 -250.21 291.14 C-243.01 292.48 -236.67 295.21 -230.22 298.59 C-227 300.27 -223.84 301.73 -220.4 302.89 C-219.35 303.31 -218.3 303.72 -217.21 304.14 C-216.88 305.13 -216.55 306.12 -216.21 307.14 C-213.99 308.68 -213.99 308.68 -211.34 310.08 C-207.76 312.03 -205.35 313.63 -203.21 317.14 C-203.21 317.8 -203.21 318.46 -203.21 319.14 C-202.55 319.14 -201.89 319.14 -201.21 319.14 C-199.57 321.22 -198.07 323.28 -196.59 325.46 C-196.17 326.05 -195.75 326.65 -195.31 327.26 C-192.21 331.76 -192.21 331.76 -192.21 335.14 C-191.55 335.14 -190.89 335.14 -190.21 335.14 C-189.94 335.84 -189.68 336.55 -189.4 337.27 C-188.25 340.16 -188.25 340.16 -186.77 342.89 C-181.18 354.52 -179.86 366.23 -179.9 379.02 C-179.88 380.21 -179.87 381.4 -179.85 382.62 C-179.84 396.56 -183.54 408.69 -190.32 420.75 C-191.41 423.67 -191.13 425.2 -190.21 428.14 C-188.85 430.18 -188.85 430.18 -187.21 432.14 C-186.76 432.91 -186.3 433.67 -185.84 434.46 C-183.45 438.4 -180.98 442.46 -177.63 445.65 C-175.56 447.83 -175.03 450.3 -174.21 453.14 C-173.55 453.14 -172.89 453.14 -172.21 453.14 C-171.55 454.79 -170.89 456.44 -170.21 458.14 C-169.55 458.14 -168.89 458.14 -168.21 458.14 C-167.88 459.79 -167.55 461.44 -167.21 463.14 C-165.89 463.47 -164.57 463.8 -163.21 464.14 C-163.15 463.22 -163.09 462.29 -163.03 461.33 C-162.94 460.14 -162.86 458.94 -162.77 457.71 C-162.65 455.91 -162.65 455.91 -162.53 454.08 C-162.21 451.14 -162.21 451.14 -161.21 450.14 C-160.93 447.82 -160.76 445.5 -160.59 443.17 C-160.47 442.5 -160.34 441.83 -160.21 441.14 C-159.55 440.81 -158.89 440.48 -158.21 440.14 C-157.78 437.62 -157.78 437.62 -157.65 434.71 C-157.31 429.33 -157.31 429.33 -156.21 427.14 C-156.04 425.79 -155.89 424.44 -155.77 423.08 C-155.59 421.78 -155.4 420.48 -155.21 419.14 C-154.55 418.81 -153.89 418.48 -153.21 418.14 C-152.78 415.62 -152.78 415.62 -152.65 412.71 C-152.31 407.33 -152.31 407.33 -151.21 405.14 C-151.07 403.86 -150.92 402.59 -150.77 401.27 C-150.41 398.08 -149.64 396.01 -148.21 393.14 C-147.77 390.49 -147.51 387.82 -147.21 385.14 C-146.88 384.15 -146.55 383.16 -146.21 382.14 C-145.96 380.12 -145.77 378.11 -145.59 376.08 C-145.21 374.14 -145.21 374.14 -143.21 371.14 C-142.8 369.19 -142.8 369.19 -142.65 367.14 C-142.41 364.55 -142.05 362.66 -141.21 360.14 C-140.95 357.8 -140.77 355.46 -140.59 353.1 C-140.47 352.46 -140.34 351.81 -140.21 351.14 C-139.55 350.81 -138.89 350.48 -138.21 350.14 C-137.74 347.79 -137.74 347.79 -137.59 345.08 C-137.47 343.7 -137.47 343.7 -137.36 342.3 C-137.29 341.23 -137.29 341.23 -137.21 340.14 C-136.88 340.14 -136.55 340.14 -136.21 340.14 C-136.14 339.1 -136.14 339.1 -136.06 338.03 C-135.95 336.66 -135.95 336.66 -135.84 335.27 C-135.77 334.36 -135.7 333.46 -135.63 332.53 C-135.21 330.14 -135.21 330.14 -133.21 328.14 C-132.75 325.71 -132.75 325.71 -132.59 323.02 C-132.47 321.65 -132.47 321.65 -132.36 320.26 C-132.29 319.21 -132.29 319.21 -132.21 318.14 C-131.88 318.14 -131.55 318.14 -131.21 318.14 C-131.14 317.08 -131.14 317.08 -131.06 315.99 C-130.95 314.61 -130.95 314.61 -130.84 313.21 C-130.77 312.29 -130.7 311.37 -130.63 310.43 C-130.49 309.67 -130.35 308.92 -130.21 308.14 C-129.55 307.81 -128.89 307.48 -128.21 307.14 C-127.74 304.56 -127.74 304.56 -127.59 301.58 C-127.51 300.57 -127.44 299.56 -127.36 298.51 C-127.29 297.34 -127.29 297.34 -127.21 296.14 C-126.88 296.14 -126.55 296.14 -126.21 296.14 C-126.14 295.11 -126.14 295.11 -126.06 294.06 C-125.99 293.16 -125.91 292.26 -125.84 291.33 C-125.77 290.44 -125.7 289.54 -125.63 288.62 C-125.21 286.14 -125.21 286.14 -123.21 283.14 C-122.79 280.93 -122.79 280.93 -122.65 278.58 C-122.31 274.33 -122.31 274.33 -121.21 272.14 C-120.94 269.81 -120.77 267.48 -120.59 265.14 C-120.47 264.48 -120.34 263.82 -120.21 263.14 C-119.55 262.81 -118.89 262.48 -118.21 262.14 C-117.78 259.59 -117.78 259.59 -117.65 256.64 C-117.31 251.24 -117.31 251.24 -116.21 250.14 C-115.93 247.82 -115.76 245.5 -115.59 243.17 C-115.47 242.5 -115.34 241.83 -115.21 241.14 C-114.55 240.81 -113.89 240.48 -113.21 240.14 C-112.78 237.62 -112.78 237.62 -112.65 234.71 C-112.31 229.33 -112.31 229.33 -111.21 227.14 C-111.04 225.79 -110.89 224.44 -110.77 223.08 C-110.59 221.78 -110.4 220.48 -110.21 219.14 C-109.55 218.81 -108.89 218.48 -108.21 218.14 C-107.78 215.62 -107.78 215.62 -107.65 212.71 C-107.31 207.33 -107.31 207.33 -106.21 205.14 C-106.07 203.86 -105.92 202.59 -105.77 201.27 C-105.41 198.08 -104.64 196.01 -103.21 193.14 C-102.77 190.49 -102.51 187.82 -102.21 185.14 C-101.88 184.15 -101.55 183.16 -101.21 182.14 C-100.96 180.12 -100.77 178.11 -100.59 176.08 C-100.21 174.14 -100.21 174.14 -98.21 171.14 C-97.8 169.19 -97.8 169.19 -97.65 167.14 C-97.41 164.55 -97.05 162.66 -96.21 160.14 C-95.95 157.8 -95.77 155.46 -95.59 153.1 C-95.47 152.46 -95.34 151.81 -95.21 151.14 C-94.55 150.81 -93.89 150.48 -93.21 150.14 C-92.74 147.79 -92.74 147.79 -92.59 145.08 C-92.51 144.16 -92.44 143.24 -92.36 142.3 C-92.31 141.59 -92.26 140.87 -92.21 140.14 C-91.88 140.14 -91.55 140.14 -91.21 140.14 C-91.16 139.44 -91.11 138.75 -91.06 138.03 C-90.99 137.12 -90.91 136.21 -90.84 135.27 C-90.77 134.36 -90.7 133.46 -90.63 132.53 C-90.21 130.14 -90.21 130.14 -88.21 128.14 C-87.75 125.71 -87.75 125.71 -87.59 123.02 C-87.51 122.11 -87.44 121.2 -87.36 120.26 C-87.31 119.56 -87.26 118.86 -87.21 118.14 C-86.88 118.14 -86.55 118.14 -86.21 118.14 C-86.16 117.43 -86.11 116.72 -86.06 115.99 C-85.99 115.07 -85.91 114.15 -85.84 113.21 C-85.77 112.29 -85.7 111.37 -85.63 110.43 C-85.49 109.67 -85.35 108.92 -85.21 108.14 C-84.55 107.81 -83.89 107.48 -83.21 107.14 C-82.74 104.56 -82.74 104.56 -82.59 101.58 C-82.51 100.57 -82.44 99.56 -82.36 98.51 C-82.31 97.73 -82.26 96.95 -82.21 96.14 C-81.88 96.14 -81.55 96.14 -81.21 96.14 C-81.16 95.46 -81.11 94.77 -81.06 94.06 C-80.95 92.71 -80.95 92.71 -80.84 91.33 C-80.77 90.44 -80.7 89.54 -80.63 88.62 C-80.21 86.14 -80.21 86.14 -78.21 83.14 C-77.79 80.93 -77.79 80.93 -77.65 78.58 C-77.31 74.33 -77.31 74.33 -76.21 72.14 C-76.04 70.79 -75.89 69.44 -75.77 68.08 C-75.59 66.78 -75.4 65.48 -75.21 64.14 C-74.55 63.81 -73.89 63.48 -73.21 63.14 C-73.07 62.09 -72.92 61.04 -72.77 59.96 C-72.2 56.04 -71.08 53.59 -69.21 50.14 C-68.53 48.48 -67.85 46.82 -67.21 45.14 C-66.55 45.14 -65.89 45.14 -65.21 45.14 C-65.21 43.49 -65.21 41.84 -65.21 40.14 C-64.55 39.81 -63.89 39.48 -63.21 39.14 C-62.55 38.15 -61.89 37.16 -61.21 36.14 C-56.93 30.28 -52.05 24.93 -47.02 19.71 C-46.39 19.05 -45.76 18.39 -45.11 17.71 C-43.07 16.02 -41.75 15.71 -39.21 15.14 C-38.41 14.34 -37.6 13.53 -36.77 12.71 C-34.24 10.17 -32.55 9.26 -29.21 8.14 C-28.88 7.81 -28.55 7.48 -28.21 7.14 C-26.21 7.1 -24.21 7.1 -22.21 7.14 C-21.88 6.15 -21.55 5.16 -21.21 4.14 C-19.56 3.81 -17.91 3.48 -16.21 3.14 C-16.21 2.81 -16.21 2.48 -16.21 2.14 C-15.57 2.08 -14.94 2.02 -14.28 1.96 C-13.45 1.88 -12.63 1.79 -11.77 1.71 C-10.95 1.62 -10.13 1.54 -9.28 1.46 C-6.05 0.97 -3.63 0.02 0 0 Z M-7.21 65.14 C-8.87 67.62 -8.87 67.62 -10.21 70.14 C-11.06 71.09 -11.9 72.04 -12.77 73.02 C-17.27 78.78 -17.69 85.61 -18.75 92.67 C-19.21 95.14 -19.21 95.14 -20.21 96.14 C-21.92 101.83 -22.53 107.22 -22.21 113.14 C-21.23 114.34 -21.23 114.34 -19.39 114.27 C-18.59 114.27 -17.79 114.27 -16.97 114.27 C-16.04 114.27 -15.12 114.27 -14.17 114.27 C-13.15 114.27 -12.12 114.27 -11.07 114.26 C-9.99 114.26 -8.91 114.27 -7.8 114.27 C-4.15 114.27 -0.51 114.26 3.14 114.26 C5.74 114.26 8.34 114.26 10.94 114.26 C16.55 114.26 22.17 114.25 27.79 114.25 C35.9 114.24 44.02 114.24 52.14 114.24 C65.31 114.23 78.49 114.23 91.66 114.22 C104.45 114.21 117.25 114.2 130.05 114.2 C130.84 114.2 131.63 114.2 132.44 114.2 C136.39 114.2 140.35 114.19 144.3 114.19 C177.13 114.18 209.96 114.17 242.79 114.14 C243.96 110.39 243.39 107.72 242.46 103.91 C241.38 99.46 240.5 94.96 239.57 90.48 C238.82 87.28 237.85 84.25 236.79 81.14 C236.63 80.44 236.47 79.74 236.31 79.02 C235.28 75.34 232.88 72.3 230.79 69.14 C230.33 68.4 229.88 67.66 229.41 66.89 C226.96 64.25 223.97 62.77 220.79 61.14 C220 60.63 220 60.63 219.2 60.1 C215.64 58.69 212.12 58.85 208.34 58.86 C207.48 58.86 206.62 58.85 205.73 58.84 C202.84 58.83 199.95 58.82 197.06 58.82 C194.99 58.81 192.92 58.8 190.85 58.79 C185.23 58.76 179.6 58.75 173.97 58.74 C170.45 58.74 166.93 58.73 163.41 58.72 C152.4 58.69 141.39 58.67 130.37 58.67 C117.67 58.66 104.97 58.62 92.26 58.56 C82.44 58.52 72.61 58.5 62.79 58.5 C56.93 58.5 51.06 58.48 45.2 58.45 C39.67 58.41 34.15 58.41 28.63 58.43 C26.61 58.43 24.59 58.42 22.57 58.4 C6.7 58.13 6.7 58.13 -7.21 65.14 Z M-12.21 67.14 C-11.21 69.14 -11.21 69.14 -11.21 69.14 Z M-10.21 67.14 C-9.21 69.14 -9.21 69.14 -9.21 69.14 Z M-35.21 174.14 C-35.21 174.47 -35.21 174.8 -35.21 175.14 C60.82 175.14 156.85 175.14 255.79 175.14 C255.79 174.81 255.79 174.48 255.79 174.14 C159.76 174.14 63.73 174.14 -35.21 174.14 Z M-37.21 175.14 C-37.7 176.55 -38.19 177.95 -38.67 179.36 C-38.94 180.14 -39.21 180.93 -39.49 181.73 C-40.52 185.18 -40.83 188.57 -41.21 192.14 C-41.71 192.64 -41.71 192.64 -42.21 193.14 C-42.58 195.14 -42.91 197.14 -43.21 199.14 C-44.1 205.03 -44.1 205.03 -45.21 206.14 C-45.42 207.47 -45.58 208.81 -45.71 210.14 C-46.1 214.03 -46.1 214.03 -47.21 215.14 C-47.54 216.93 -47.82 218.72 -48.09 220.52 C-48.89 225.59 -50.06 230.4 -51.49 235.32 C-52.55 239.44 -53.17 243.6 -53.78 247.81 C-54.21 250.14 -54.21 250.14 -55.21 251.14 C-55.54 252.57 -55.82 254.01 -56.08 255.45 C-56.24 256.34 -56.4 257.22 -56.57 258.14 C-56.74 259.09 -56.91 260.04 -57.09 261.02 C-58.32 267.72 -59.64 274.3 -61.56 280.84 C-62.45 283.99 -63.12 287.17 -63.78 290.37 C-64.21 292.14 -64.21 292.14 -65.21 294.14 C-65.4 296.06 -65.4 296.06 -65.59 298.02 C-67.1 313.03 -67.1 313.03 -70.21 316.14 C-70.48 317.51 -70.7 318.88 -70.9 320.26 C-71.02 321.09 -71.14 321.93 -71.27 322.79 C-71.52 324.55 -71.77 326.32 -72.02 328.09 C-72.14 328.93 -72.27 329.77 -72.4 330.63 C-72.5 331.4 -72.61 332.17 -72.73 332.96 C-73.24 335.28 -74.15 337.03 -75.21 339.14 C-75.71 341.19 -75.71 341.19 -75.99 343.33 C-76.17 344.5 -76.17 344.5 -76.36 345.7 C-76.47 346.5 -76.59 347.31 -76.71 348.14 C-76.94 349.75 -77.18 351.35 -77.43 352.96 C-77.53 353.66 -77.64 354.37 -77.74 355.1 C-78.26 357.34 -79.16 359.1 -80.21 361.14 C-80.6 363.03 -80.93 364.93 -81.21 366.83 C-81.9 371.24 -82.7 375.56 -83.71 379.9 C-84.47 383.31 -85.11 386.74 -85.75 390.17 C-86.21 392.14 -86.21 392.14 -87.21 393.14 C-87.58 395.14 -87.91 397.14 -88.21 399.14 C-89.1 405.03 -89.1 405.03 -90.21 406.14 C-90.42 407.47 -90.58 408.81 -90.71 410.14 C-91.1 414.03 -91.1 414.03 -92.21 415.14 C-92.54 416.93 -92.82 418.72 -93.09 420.52 C-93.89 425.59 -95.06 430.4 -96.49 435.32 C-97.55 439.44 -98.17 443.6 -98.78 447.81 C-99.21 450.14 -99.21 450.14 -100.21 451.14 C-100.54 452.57 -100.82 454.01 -101.08 455.45 C-101.24 456.34 -101.4 457.22 -101.57 458.14 C-101.83 459.56 -101.83 459.56 -102.09 461.02 C-103.32 467.72 -104.64 474.3 -106.56 480.84 C-107.45 483.99 -108.12 487.17 -108.78 490.37 C-109.21 492.14 -109.21 492.14 -110.21 494.14 C-110.4 496.06 -110.4 496.06 -110.59 498.02 C-112.1 513.03 -112.1 513.03 -115.21 516.14 C-115.72 518.73 -116.15 521.28 -116.52 523.89 C-116.65 524.61 -116.77 525.33 -116.9 526.06 C-117.44 529.92 -117.48 531.73 -115.32 535.03 C-114.62 535.73 -113.93 536.42 -113.21 537.14 C-112.88 537.82 -112.55 538.5 -112.21 539.21 C-111.26 541.29 -111.26 541.29 -109.27 543.08 C-107.21 545.14 -107.21 545.14 -105.59 547.89 C-105.13 548.64 -104.68 549.38 -104.21 550.14 C-103.55 550.14 -102.89 550.14 -102.21 550.14 C-102.03 550.95 -101.84 551.75 -101.65 552.58 C-99.67 557.48 -96.51 561.06 -93.21 565.14 C-88.7 571.13 -88.7 571.13 -87.15 574.33 C-86.24 576.31 -86.24 576.31 -84.27 578.08 C-82.21 580.14 -82.21 580.14 -80.59 582.89 C-79.91 584.01 -79.91 584.01 -79.21 585.14 C-78.55 585.14 -77.89 585.14 -77.21 585.14 C-77.03 585.95 -76.84 586.75 -76.65 587.58 C-74.67 592.48 -71.51 596.06 -68.21 600.14 C-63.7 606.13 -63.7 606.13 -62.15 609.33 C-61.24 611.31 -61.24 611.31 -59.27 613.08 C-57.21 615.14 -57.21 615.14 -55.59 617.89 C-54.91 619.01 -54.91 619.01 -54.21 620.14 C-53.55 620.14 -52.89 620.14 -52.21 620.14 C-52.03 620.95 -51.84 621.75 -51.65 622.58 C-49.67 627.48 -46.51 631.06 -43.21 635.14 C-38.7 641.13 -38.7 641.13 -37.15 644.33 C-36.24 646.31 -36.24 646.31 -34.27 648.08 C-32.21 650.14 -32.21 650.14 -30.59 652.89 C-29.91 654.01 -29.91 654.01 -29.21 655.14 C-28.55 655.14 -27.89 655.14 -27.21 655.14 C-27.03 655.95 -26.84 656.75 -26.65 657.58 C-24.67 662.48 -21.51 666.06 -18.21 670.14 C-13.7 676.13 -13.7 676.13 -12.15 679.33 C-11.24 681.31 -11.24 681.31 -9.27 683.08 C-7.21 685.14 -7.21 685.14 -5.59 687.89 C-5.13 688.64 -4.68 689.38 -4.21 690.14 C-3.55 690.14 -2.89 690.14 -2.21 690.14 C-2.03 690.95 -1.84 691.75 -1.65 692.58 C0.33 697.48 3.49 701.06 6.79 705.14 C11.3 711.13 11.3 711.13 12.85 714.33 C13.74 716.29 13.74 716.29 15.64 717.93 C17.9 720.26 19.43 722.56 21.1 725.33 C23.88 729.81 26.87 733.96 30.15 738.08 C35.93 745.37 35.93 745.37 37.85 749.33 C38.74 751.29 38.74 751.29 40.64 752.93 C42.9 755.26 44.43 757.56 46.1 760.33 C48.88 764.81 51.87 768.96 55.15 773.08 C60.93 780.37 60.93 780.37 62.85 784.33 C63.74 786.29 63.74 786.29 65.64 787.93 C67.9 790.26 69.43 792.56 71.1 795.33 C73.88 799.81 76.87 803.96 80.15 808.08 C85.93 815.37 85.93 815.37 87.85 819.33 C88.74 821.29 88.74 821.29 90.64 822.93 C92.9 825.26 94.43 827.56 96.1 830.33 C98.88 834.81 101.87 838.96 105.15 843.08 C110.93 850.37 110.93 850.37 112.85 854.33 C113.74 856.28 113.74 856.28 115.59 857.9 C118.02 860.38 119.96 863 121.98 865.83 C124.21 869.13 124.21 869.13 126.79 872.14 C128.33 872.24 129.87 872.27 131.41 872.27 C132.41 872.27 133.42 872.27 134.46 872.27 C136.13 872.27 136.13 872.27 137.84 872.26 C139.02 872.26 140.2 872.27 141.41 872.27 C144.69 872.27 147.97 872.26 151.25 872.26 C154.79 872.25 158.32 872.26 161.85 872.26 C167.98 872.26 174.1 872.25 180.23 872.25 C189.09 872.24 197.95 872.24 206.8 872.24 C221.17 872.23 235.54 872.23 249.91 872.22 C263.87 872.21 277.83 872.2 291.8 872.2 C292.66 872.2 293.52 872.2 294.4 872.2 C298.72 872.2 303.03 872.19 307.34 872.19 C343.16 872.18 378.97 872.17 414.79 872.14 C413.86 865.52 412.66 859.13 410.79 852.71 C409.29 847.38 408.33 841.96 407.29 836.53 C406.8 834.02 406.8 834.02 405.85 831.14 C404.84 827.74 404.35 824.34 403.85 820.83 C403.13 815.88 402.05 811.3 400.51 806.55 C399.51 803.22 398.89 799.85 398.25 796.44 C397.78 793.93 397.78 793.93 396.79 790.71 C395.67 786.73 395 782.77 394.35 778.69 C393.9 776.13 393.9 776.13 392.66 773.94 C392.23 773.05 392.23 773.05 391.79 772.14 C392.12 771.48 392.45 770.82 392.79 770.14 C392.31 768.02 392.31 768.02 391.48 765.64 C389.85 760.53 388.76 755.42 387.79 750.14 C386.82 744.96 385.48 739.87 384.16 734.76 C382.79 729.36 382.79 729.36 382.79 727.14 C382.19 724.45 381.56 721.76 380.91 719.08 C380.54 717.52 380.17 715.96 379.8 714.4 C379.62 713.66 379.45 712.91 379.26 712.14 C378.13 707.35 377.08 702.53 376.07 697.71 C375.81 696.47 375.56 695.23 375.29 693.96 C375.05 692.81 374.81 691.66 374.57 690.48 C373.82 687.28 372.85 684.25 371.79 681.14 C370.42 675.85 369.56 670.55 368.79 665.14 C367.96 660.94 366.98 656.82 365.79 652.71 C364.29 647.38 363.33 641.96 362.29 636.53 C361.8 634.02 361.8 634.02 360.85 631.14 C359.84 627.74 359.35 624.34 358.85 620.83 C358.13 615.88 357.05 611.3 355.51 606.55 C354.51 603.22 353.89 599.85 353.25 596.44 C352.78 593.93 352.78 593.93 351.79 590.71 C350.67 586.73 350 582.77 349.35 578.69 C348.9 576.13 348.9 576.13 347.66 573.94 C347.23 573.05 347.23 573.05 346.79 572.14 C347.12 571.48 347.45 570.82 347.79 570.14 C347.31 568.02 347.31 568.02 346.48 565.64 C344.85 560.53 343.76 555.42 342.79 550.14 C341.82 544.96 340.48 539.87 339.16 534.76 C337.79 529.36 337.79 529.36 337.79 527.14 C337.19 524.45 336.56 521.76 335.91 519.08 C335.54 517.52 335.17 515.96 334.8 514.4 C334.62 513.66 334.45 512.91 334.26 512.14 C333.13 507.35 332.08 502.53 331.07 497.71 C330.81 496.47 330.56 495.23 330.29 493.96 C330.05 492.81 329.81 491.66 329.57 490.48 C328.82 487.28 327.85 484.25 326.79 481.14 C325.42 475.85 324.56 470.55 323.79 465.14 C322.96 460.94 321.98 456.82 320.79 452.71 C319.29 447.38 318.33 441.96 317.29 436.53 C316.8 434.02 316.8 434.02 315.85 431.14 C314.84 427.74 314.35 424.34 313.85 420.83 C313.13 415.88 312.05 411.3 310.51 406.55 C309.51 403.22 308.89 399.85 308.25 396.44 C307.78 393.93 307.78 393.93 306.79 390.71 C305.67 386.73 305 382.77 304.35 378.69 C303.9 376.13 303.9 376.13 302.66 373.94 C302.23 373.05 302.23 373.05 301.79 372.14 C302.12 371.48 302.45 370.82 302.79 370.14 C302.31 368.09 302.31 368.09 301.48 365.77 C300.25 361.92 299.4 358.2 298.79 354.21 C297.73 347.39 295.96 340.88 293.89 334.3 C293.61 333.4 293.33 332.51 293.04 331.58 C292.78 330.77 292.51 329.97 292.24 329.14 C291.79 327.14 291.79 327.14 292.79 325.14 C292.31 323.09 292.31 323.09 291.48 320.77 C290.24 316.9 289.4 313.16 288.79 309.14 C288.07 304.44 286.96 300.06 285.51 295.53 C284.11 290.93 283.19 286.23 282.29 281.52 C281.78 278.96 281.78 278.96 280.79 275.77 C279.51 271.13 278.94 266.54 278.41 261.77 C277.79 258.16 276.76 254.99 275.55 251.55 C274.26 247.49 273.55 243.33 272.79 239.14 C272.27 236.39 271.69 233.82 270.85 231.14 C269.84 227.74 269.35 224.34 268.85 220.83 C268.13 215.88 267.05 211.3 265.51 206.55 C264.51 203.22 263.89 199.85 263.25 196.44 C262.78 193.93 262.78 193.93 261.79 190.71 C260.65 186.64 259.99 182.58 259.35 178.4 C259.17 177.66 258.98 176.91 258.79 176.14 C256.32 174.91 254.71 175.02 251.95 175.02 C250.92 175.02 249.89 175.02 248.84 175.01 C247.7 175.02 246.56 175.02 245.39 175.02 C244.18 175.02 242.98 175.02 241.74 175.02 C238.4 175.02 235.05 175.02 231.7 175.03 C228.09 175.03 224.49 175.03 220.88 175.03 C214.63 175.03 208.38 175.03 202.13 175.04 C193.09 175.05 184.05 175.05 175.01 175.05 C160.35 175.05 145.69 175.06 131.03 175.07 C116.78 175.08 102.53 175.08 88.29 175.09 C87.41 175.09 86.53 175.09 85.63 175.09 C81.23 175.09 76.82 175.09 72.42 175.09 C35.88 175.1 -0.67 175.12 -37.21 175.14 Z M319.79 184.14 C320.79 186.14 320.79 186.14 320.79 186.14 Z M-286.21 357.14 C-294.22 366.3 -296.08 372.14 -295.46 384.14 C-294.82 389.36 -291.77 392.58 -288.21 396.14 C-287.61 396.76 -287.02 397.38 -286.4 398.02 C-285.32 399.07 -285.32 399.07 -284.21 400.14 C-283.16 401.19 -283.16 401.19 -282.09 402.27 C-277.82 405.05 -272.25 406.78 -267.15 405.71 C-266.19 405.43 -266.19 405.43 -265.21 405.14 C-263.93 405.02 -262.65 404.9 -261.34 404.77 C-256.17 404.13 -252.51 402.63 -249.02 398.64 C-248.43 397.82 -247.83 396.99 -247.21 396.14 C-246.71 395.68 -246.21 395.21 -245.7 394.74 C-244.02 392.94 -243.39 391.46 -242.59 389.14 C-242.35 388.46 -242.11 387.78 -241.86 387.08 C-239.72 380.7 -238.99 374.31 -241.46 367.89 C-242.04 366.99 -242.62 366.08 -243.21 365.14 C-243.88 363.89 -244.55 362.64 -245.21 361.39 C-247 357.98 -247 357.98 -250.21 356.14 C-251.2 356.14 -252.19 356.14 -253.21 356.14 C-253.71 354.16 -253.71 354.16 -254.21 352.14 C-254.92 352.01 -255.63 351.88 -256.36 351.74 C-257.28 351.56 -258.2 351.39 -259.15 351.21 C-260.07 351.03 -260.98 350.86 -261.93 350.68 C-264.21 350.14 -264.21 350.14 -265.21 349.14 C-272.7 348.57 -280.55 352.47 -286.21 357.14 Z M-295.21 362.14 C-295.21 363.13 -295.21 364.12 -295.21 365.14 C-294.22 364.81 -293.23 364.48 -292.21 364.14 C-292.21 363.48 -292.21 362.82 -292.21 362.14 C-293.2 362.14 -294.19 362.14 -295.21 362.14 Z M-269.21 463.14 C-269.54 463.8 -269.87 464.46 -270.21 465.14 C-269.55 465.14 -268.89 465.14 -268.21 465.14 C-268.54 464.48 -268.87 463.82 -269.21 463.14 Z M105.79 928.14 C105.46 928.8 105.13 929.46 104.79 930.14 C105.45 930.14 106.11 930.14 106.79 930.14 C106.46 929.48 106.13 928.82 105.79 928.14 Z M569.79 942.14 C569.79 943.13 569.79 944.12 569.79 945.14 C570.78 944.81 571.77 944.48 572.79 944.14 C572.79 943.48 572.79 942.82 572.79 942.14 C571.8 942.14 570.81 942.14 569.79 942.14 Z M564.79 949.14 C564.79 950.13 564.79 951.12 564.79 952.14 C565.78 951.81 566.77 951.48 567.79 951.14 C567.79 950.48 567.79 949.82 567.79 949.14 C566.8 949.14 565.81 949.14 564.79 949.14 Z " fill="#000000" transform="translate(529.2116312980652,-0.1430675983428955)"/>
<path d="M0 0 C1.84 0.96 3.61 2.04 5.37 3.14 C6.7 3.48 8.04 3.82 9.37 4.14 C11.12 5.58 11.12 5.58 12.37 7.14 C12.37 7.8 12.37 8.46 12.37 9.14 C13.03 9.14 13.69 9.14 14.37 9.14 C16.52 13 17.76 15.69 17.37 20.14 C18.03 20.14 18.69 20.14 19.37 20.14 C20.04 44.8 20.04 44.8 15.37 54.14 C15.19 56.06 15.19 56.06 15 58.02 C13.48 73.03 13.48 73.03 10.37 76.14 C10.1 77.5 9.88 78.88 9.69 80.25 C9.56 81.09 9.44 81.93 9.31 82.79 C9.06 84.55 8.81 86.32 8.56 88.08 C8.44 88.92 8.32 89.76 8.19 90.63 C8.08 91.4 7.97 92.17 7.86 92.96 C7.34 95.27 6.44 97.03 5.37 99.14 C4.87 101.19 4.87 101.19 4.59 103.33 C4.47 104.11 4.35 104.89 4.23 105.7 C4.11 106.5 3.99 107.31 3.87 108.14 C3.64 109.75 3.4 111.35 3.15 112.95 C3.05 113.66 2.95 114.37 2.84 115.1 C2.32 117.34 1.43 119.1 0.37 121.14 C-0.02 123.03 -0.35 124.92 -0.63 126.83 C-1.31 131.23 -2.12 135.56 -3.12 139.9 C-3.89 143.31 -4.52 146.74 -5.16 150.17 C-5.63 152.14 -5.63 152.14 -6.63 153.14 C-7 155.13 -7.33 157.14 -7.63 159.14 C-8.52 165.03 -8.52 165.03 -9.63 166.14 C-9.83 167.47 -10 168.8 -10.13 170.14 C-10.52 174.03 -10.52 174.03 -11.63 175.14 C-11.96 176.93 -12.24 178.72 -12.5 180.52 C-13.31 185.59 -14.48 190.39 -15.9 195.32 C-16.96 199.44 -17.58 203.6 -18.2 207.8 C-18.63 210.14 -18.63 210.14 -19.63 211.14 C-20.22 213.95 -20.76 216.75 -21.25 219.58 C-21.4 220.37 -21.55 221.16 -21.7 221.97 C-22.65 226.15 -22.65 226.15 -21.63 230.14 C-19.94 231.83 -17.84 231.26 -15.59 231.27 C-14.86 231.27 -14.13 231.27 -13.38 231.27 C-12.23 231.27 -12.23 231.27 -11.06 231.27 C-8.46 231.27 -5.87 231.27 -3.28 231.27 C-1.43 231.27 0.42 231.27 2.27 231.27 C6.27 231.28 10.27 231.28 14.27 231.28 C20.6 231.28 26.93 231.29 33.26 231.31 C34.32 231.31 35.39 231.31 36.49 231.32 C38.68 231.32 40.86 231.33 43.04 231.33 C57.79 231.37 72.53 231.39 87.27 231.39 C97.2 231.39 107.14 231.41 117.07 231.44 C122.33 231.46 127.58 231.47 132.84 231.46 C137.79 231.45 142.75 231.46 147.7 231.49 C149.51 231.49 151.32 231.49 153.13 231.48 C176.5 231.35 176.5 231.35 184.95 239.69 C192.03 248.14 194.02 255.46 193.09 266.49 C191.83 275.13 191.83 275.13 188.37 278.14 C187.69 279.35 187.69 279.35 187 280.58 C185.13 283.53 183.21 285.12 180.37 287.14 C179.26 287.94 179.26 287.94 178.12 288.77 C171.65 292 164.67 292.44 157.54 292.38 C156.7 292.38 155.86 292.38 155 292.39 C152.21 292.39 149.41 292.38 146.62 292.37 C144.61 292.37 142.6 292.37 140.59 292.37 C135.15 292.37 129.71 292.36 124.27 292.34 C118.57 292.33 112.88 292.33 107.18 292.33 C96.41 292.32 85.64 292.3 74.86 292.28 C62.6 292.26 50.33 292.25 38.06 292.24 C12.83 292.22 -12.4 292.19 -37.63 292.14 C-37.77 292.92 -37.92 293.71 -38.07 294.52 C-38.63 297.14 -38.63 297.14 -39.63 299.14 C-39.81 301.06 -39.81 301.06 -40 303.02 C-41.52 318.03 -41.52 318.03 -44.63 321.14 C-44.9 322.5 -45.12 323.88 -45.31 325.25 C-45.44 326.09 -45.56 326.93 -45.69 327.79 C-45.94 329.55 -46.19 331.32 -46.44 333.08 C-46.56 333.92 -46.68 334.76 -46.81 335.63 C-46.92 336.4 -47.03 337.17 -47.14 337.96 C-47.66 340.27 -48.56 342.03 -49.63 344.14 C-50.13 346.19 -50.13 346.19 -50.41 348.33 C-50.53 349.11 -50.65 349.89 -50.77 350.7 C-50.89 351.5 -51.01 352.31 -51.13 353.14 C-51.36 354.75 -51.6 356.35 -51.85 357.95 C-52 359.01 -52 359.01 -52.16 360.1 C-52.67 362.34 -53.57 364.11 -54.63 366.14 C-55.04 368.23 -55.04 368.23 -55.19 370.33 C-55.63 374.14 -55.63 374.14 -56.63 375.14 C-56.98 376.95 -57.29 378.76 -57.57 380.58 C-58.22 384.67 -58.9 388.76 -59.69 392.83 C-59.85 393.64 -60 394.44 -60.16 395.28 C-60.63 397.14 -60.63 397.14 -61.63 398.14 C-62 400.13 -62.33 402.14 -62.63 404.14 C-63.52 410.03 -63.52 410.03 -64.63 411.14 C-64.83 412.47 -65 413.8 -65.13 415.14 C-65.52 419.03 -65.52 419.03 -66.63 420.14 C-66.96 421.93 -67.24 423.72 -67.5 425.52 C-68.31 430.59 -69.48 435.39 -70.9 440.32 C-71.96 444.44 -72.58 448.6 -73.2 452.8 C-73.63 455.14 -73.63 455.14 -74.63 456.14 C-75.29 459.71 -75.88 463.29 -76.44 466.88 C-76.56 467.64 -76.68 468.39 -76.81 469.16 C-76.92 469.85 -77.03 470.54 -77.14 471.26 C-77.63 473.14 -77.63 473.14 -79.63 476.14 C-80.14 478.19 -80.14 478.19 -80.41 480.45 C-80.53 481.28 -80.65 482.11 -80.77 482.96 C-80.89 483.83 -81.01 484.69 -81.13 485.58 C-81.36 487.29 -81.6 488.99 -81.85 490.7 C-81.95 491.46 -82.05 492.21 -82.16 492.99 C-82.66 495.29 -83.54 497.06 -84.63 499.14 C-84.97 501.09 -84.97 501.09 -85.07 503.14 C-86.42 517.93 -86.42 517.93 -89.63 521.14 C-89.9 522.5 -90.12 523.88 -90.31 525.25 C-90.44 526.09 -90.56 526.93 -90.69 527.79 C-90.94 529.55 -91.19 531.32 -91.44 533.08 C-91.56 533.92 -91.68 534.76 -91.81 535.63 C-91.92 536.4 -92.03 537.17 -92.14 537.96 C-92.66 540.27 -93.52 542.05 -94.63 544.14 C-97.41 554.62 -96.77 561.51 -91.98 571.14 C-90.72 573.45 -90.72 573.45 -87.63 574.14 C-87.13 575.63 -87.13 575.63 -86.63 577.14 C-83.15 577.93 -79.94 578.27 -76.37 578.27 C-74.8 578.27 -74.8 578.27 -73.2 578.28 C-72.05 578.28 -70.9 578.28 -69.72 578.27 C-67.88 578.28 -67.88 578.28 -66.01 578.28 C-62.59 578.29 -59.17 578.29 -55.76 578.29 C-52.05 578.29 -48.33 578.29 -44.62 578.3 C-37.26 578.31 -29.89 578.31 -22.52 578.31 C-13.7 578.32 -4.88 578.33 3.95 578.33 C25.27 578.36 46.59 578.37 67.91 578.38 C78 578.38 88.08 578.38 98.16 578.39 C132.66 578.41 167.16 578.42 201.66 578.43 C203.83 578.43 206 578.43 208.16 578.43 C209.24 578.43 210.31 578.43 211.42 578.43 C216.86 578.43 222.3 578.43 227.74 578.44 C229.36 578.44 229.36 578.44 231.02 578.44 C266.06 578.44 301.1 578.47 336.14 578.5 C373.17 578.53 410.2 578.55 447.23 578.56 C451.29 578.56 455.35 578.56 459.42 578.56 C460.92 578.56 460.92 578.56 462.45 578.56 C478.57 578.56 494.69 578.58 510.81 578.6 C526.99 578.62 543.18 578.62 559.37 578.61 C569 578.61 578.63 578.61 588.25 578.64 C594.68 578.65 601.1 578.65 607.52 578.64 C611.19 578.63 614.85 578.63 618.51 578.65 C622.46 578.66 626.4 578.65 630.34 578.64 C631.48 578.65 632.63 578.66 633.81 578.67 C639.99 578.61 643.68 578.3 648.37 574.14 C653.06 569.23 656.07 564.5 656.68 557.64 C656.35 553.9 655.45 550.74 654.37 547.14 C653.85 544.36 653.38 541.58 652.93 538.79 C652.44 536.09 652.44 536.09 651.31 533.49 C650.37 531.14 650.37 531.14 650.37 528.14 C649.94 525.93 649.48 523.72 649 521.52 C648.72 520.25 648.44 518.99 648.16 517.69 C647.9 516.52 647.64 515.35 647.37 514.14 C647.2 513.36 647.04 512.58 646.87 511.78 C646.1 508.23 645.26 504.7 644.36 501.18 C644.18 500.46 643.99 499.75 643.81 499.01 C643.44 497.58 643.07 496.15 642.69 494.72 C641.83 491.38 641.37 488.63 641.37 485.14 C640.96 483.63 640.5 482.13 640 480.64 C638.79 476.82 637.97 473.1 637.37 469.14 C636.65 464.43 635.54 460.05 634.1 455.52 C632.7 450.93 631.77 446.23 630.87 441.52 C630.37 438.95 630.37 438.95 629.37 435.77 C628.09 431.13 627.53 426.54 627 421.77 C626.37 418.15 625.34 414.99 624.13 411.54 C622.85 407.48 622.13 403.32 621.37 399.14 C620.84 396.29 620.23 393.71 619.31 390.95 C618.32 386.93 618.27 383.55 618.38 379.44 C618.45 377.02 618.45 377.02 617.75 374.2 C617.37 372.14 617.37 372.14 619.37 369.14 C619.95 367.56 620.51 365.98 621.06 364.39 C623.11 359.18 625.75 355.38 630.37 352.14 C633.81 351.2 633.81 351.2 636.37 351.14 C636.37 350.48 636.37 349.82 636.37 349.14 C639.43 348.89 642.49 348.67 645.56 348.45 C646.42 348.38 647.29 348.31 648.18 348.23 C653.22 347.9 656.2 347.94 660.37 351.14 C661.05 351.29 661.73 351.43 662.43 351.58 C665.21 352.38 666.53 353.97 668.37 356.14 C668.37 356.8 668.37 357.46 668.37 358.14 C668.98 358.39 669.59 358.63 670.21 358.88 C674.38 361.31 675.78 365.75 677.37 370.14 C678.22 373.6 678.84 377.09 679.38 380.61 C679.94 384.18 680.71 386.95 682.37 390.14 C682.94 392.42 683.46 394.71 683.93 397.02 C684.18 398.21 684.43 399.4 684.69 400.63 C685.11 402.82 685.51 405.02 685.87 407.22 C686.38 410.19 687.09 413.04 687.87 415.95 C689.01 420.39 689.78 424.63 690.06 429.2 C690.27 431.18 690.27 431.18 691.3 432.9 C692.84 436.13 693.29 439.52 693.87 443.02 C694.7 447.91 695.74 452.44 697.37 457.14 C697.72 458.68 698.03 460.22 698.31 461.77 C699.01 465.46 699.85 469.07 700.81 472.7 C702.3 478.51 703.34 484.35 704.28 490.27 C704.92 494.15 705.84 497.53 707.37 501.14 C707.75 502.71 708.08 504.3 708.37 505.89 C709.11 509.85 709.95 513.78 710.83 517.71 C711.73 521.75 712.58 525.79 713.43 529.83 C713.61 530.64 713.78 531.46 713.96 532.3 C714.86 536.57 715.69 540.83 716.37 545.14 C716.55 546.11 716.73 547.08 716.91 548.07 C719.3 563.98 716.09 580.62 709.37 595.14 C708.71 595.14 708.05 595.14 707.37 595.14 C707.04 596.79 706.71 598.44 706.37 600.14 C705.71 600.14 705.05 600.14 704.37 600.14 C704.28 601.22 704.28 601.22 704.18 602.33 C703.12 606 701.09 607.49 698.37 610.14 C696.58 613.31 696.58 613.31 695.37 616.14 C694.71 616.14 694.05 616.14 693.37 616.14 C693.37 616.8 693.37 617.46 693.37 618.14 C689.02 622.14 689.02 622.14 685.37 622.14 C685.14 622.74 684.91 623.33 684.67 623.95 C683.04 626.7 681.39 627.63 678.62 629.2 C677.28 629.97 677.28 629.97 675.91 630.75 C671.33 633.26 667.5 635.19 662.37 636.14 C656.98 637.42 656.98 637.42 652.37 640.14 C650.74 640.24 649.11 640.27 647.48 640.27 C646.41 640.27 645.34 640.27 644.24 640.28 C643.05 640.27 641.86 640.27 640.64 640.27 C639.38 640.27 638.12 640.27 636.83 640.27 C633.31 640.28 629.79 640.28 626.27 640.28 C622.46 640.27 618.64 640.28 614.82 640.28 C608.12 640.29 601.42 640.29 594.72 640.29 C584.76 640.29 574.8 640.29 564.84 640.29 C546.01 640.3 527.19 640.31 508.37 640.31 C493.83 640.31 479.3 640.31 464.77 640.31 C460.59 640.31 456.42 640.32 452.24 640.32 C451.2 640.32 450.16 640.32 449.09 640.32 C419.87 640.32 390.65 640.33 361.43 640.33 C360.33 640.33 359.22 640.33 358.09 640.33 C352.5 640.33 346.91 640.33 341.32 640.33 C340.21 640.33 339.1 640.33 337.96 640.33 C335.71 640.33 333.47 640.33 331.22 640.33 C296.29 640.33 261.35 640.33 226.41 640.35 C187.2 640.36 147.99 640.37 108.77 640.37 C104.6 640.37 100.42 640.37 96.24 640.37 C95.21 640.37 94.18 640.37 93.12 640.37 C76.53 640.37 59.95 640.38 43.36 640.38 C26.7 640.39 10.04 640.39 -6.62 640.39 C-16.53 640.38 -26.44 640.39 -36.34 640.4 C-42.95 640.4 -49.56 640.4 -56.17 640.39 C-59.94 640.39 -63.71 640.39 -67.49 640.4 C-71.54 640.4 -75.59 640.4 -79.64 640.39 C-81.42 640.4 -81.42 640.4 -83.24 640.4 C-84.84 640.4 -84.84 640.4 -86.49 640.39 C-87.41 640.39 -88.34 640.39 -89.3 640.39 C-91.63 640.14 -91.63 640.14 -94.63 638.14 C-96.22 637.7 -97.83 637.31 -99.44 636.95 C-108.98 634.45 -117.81 630.33 -124.63 623.14 C-125.95 622.44 -127.28 621.77 -128.63 621.14 C-128.96 620.48 -129.29 619.82 -129.63 619.14 C-130.62 618.81 -131.61 618.48 -132.63 618.14 C-132.63 617.48 -132.63 616.82 -132.63 616.14 C-133.29 616.14 -133.95 616.14 -134.63 616.14 C-135.28 614.69 -135.28 614.69 -135.94 613.2 C-137.33 609.86 -137.33 609.86 -140.63 609.14 C-140.63 608.48 -140.63 607.82 -140.63 607.14 C-141.29 607.14 -141.95 607.14 -142.63 607.14 C-143.12 605.66 -143.12 605.66 -143.63 604.14 C-144.29 603.48 -144.95 602.82 -145.63 602.14 C-146 600.69 -146 600.69 -146.38 599.2 C-147.29 595.68 -148.84 592.8 -150.63 589.64 C-152.99 585.45 -154.6 581.83 -155.63 577.14 C-155.81 576.36 -156 575.57 -156.19 574.77 C-157.74 565.48 -159.03 555.34 -156.63 546.14 C-156.37 543.07 -156.19 540 -156.01 536.92 C-155.63 534.14 -155.63 534.14 -153.63 531.14 C-153.21 529.19 -153.21 529.19 -153.07 527.14 C-152.83 524.54 -152.47 522.66 -151.63 520.14 C-151.37 517.8 -151.19 515.45 -151.01 513.1 C-150.88 512.45 -150.76 511.81 -150.63 511.14 C-149.97 510.81 -149.31 510.48 -148.63 510.14 C-148.16 507.78 -148.16 507.78 -148 505.08 C-147.93 504.16 -147.85 503.24 -147.78 502.29 C-147.73 501.58 -147.68 500.87 -147.63 500.14 C-147.3 500.14 -146.97 500.14 -146.63 500.14 C-146.58 499.44 -146.53 498.74 -146.48 498.02 C-146.41 497.11 -146.33 496.2 -146.25 495.27 C-146.15 493.91 -146.15 493.91 -146.04 492.52 C-145.63 490.14 -145.63 490.14 -143.63 488.14 C-143.17 485.71 -143.17 485.71 -143 483.02 C-142.93 482.11 -142.85 481.2 -142.78 480.26 C-142.73 479.56 -142.68 478.86 -142.63 478.14 C-142.3 478.14 -141.97 478.14 -141.63 478.14 C-141.58 477.43 -141.53 476.72 -141.48 475.99 C-141.41 475.07 -141.33 474.15 -141.25 473.2 C-141.18 472.29 -141.11 471.37 -141.04 470.43 C-140.91 469.67 -140.77 468.92 -140.63 468.14 C-139.97 467.81 -139.31 467.48 -138.63 467.14 C-138.2 464.59 -138.2 464.59 -138.07 461.64 C-137.73 456.24 -137.73 456.24 -136.63 455.14 C-136.35 452.82 -136.18 450.5 -136.01 448.17 C-135.88 447.5 -135.76 446.83 -135.63 446.14 C-134.97 445.81 -134.31 445.48 -133.63 445.14 C-133.2 442.62 -133.2 442.62 -133.07 439.7 C-132.72 434.33 -132.72 434.33 -131.63 432.14 C-131.36 429.81 -131.18 427.48 -131.01 425.14 C-130.88 424.48 -130.76 423.82 -130.63 423.14 C-129.97 422.81 -129.31 422.48 -128.63 422.14 C-128.2 419.85 -128.2 419.85 -128.07 417.2 C-127.72 412.33 -127.72 412.33 -126.63 410.14 C-126.36 407.81 -126.18 405.48 -126.01 403.14 C-125.88 402.48 -125.76 401.82 -125.63 401.14 C-124.97 400.81 -124.31 400.48 -123.63 400.14 C-123.2 397.62 -123.2 397.62 -123.07 394.7 C-122.72 389.33 -122.72 389.33 -121.63 387.14 C-121.45 385.79 -121.31 384.43 -121.19 383.08 C-120.91 381.13 -120.91 381.13 -120.63 379.14 C-119.97 378.81 -119.31 378.48 -118.63 378.14 C-118.2 375.62 -118.2 375.62 -118.07 372.7 C-117.72 367.33 -117.72 367.33 -116.63 365.14 C-116.36 363.1 -116.18 361.06 -116.01 359.02 C-115.63 357.14 -115.63 357.14 -113.63 355.14 C-113.17 352.71 -113.17 352.71 -113 350.02 C-112.93 349.11 -112.85 348.2 -112.78 347.26 C-112.73 346.56 -112.68 345.86 -112.63 345.14 C-112.3 345.14 -111.97 345.14 -111.63 345.14 C-111.58 344.38 -111.53 343.62 -111.48 342.84 C-111.41 341.85 -111.33 340.85 -111.25 339.83 C-111.18 338.84 -111.11 337.86 -111.04 336.84 C-110.63 334.14 -110.63 334.14 -108.63 331.14 C-108.18 329.09 -108.18 329.09 -108 326.95 C-107.88 325.69 -107.76 324.44 -107.63 323.14 C-107.3 323.14 -106.97 323.14 -106.63 323.14 C-106.58 322.37 -106.53 321.6 -106.48 320.8 C-106.41 319.8 -106.33 318.8 -106.25 317.77 C-106.18 316.77 -106.11 315.77 -106.04 314.74 C-105.63 312.14 -105.63 312.14 -103.63 310.14 C-103.17 307.71 -103.17 307.71 -103 305.02 C-102.93 304.11 -102.85 303.2 -102.78 302.26 C-102.73 301.56 -102.68 300.86 -102.63 300.14 C-102.3 300.14 -101.97 300.14 -101.63 300.14 C-101.58 299.44 -101.53 298.74 -101.48 298.02 C-101.41 297.11 -101.33 296.2 -101.25 295.27 C-101.18 294.36 -101.11 293.46 -101.04 292.52 C-100.63 290.14 -100.63 290.14 -98.63 288.14 C-98.17 285.71 -98.17 285.71 -98 283.02 C-97.93 282.11 -97.85 281.2 -97.78 280.26 C-97.73 279.56 -97.68 278.86 -97.63 278.14 C-97.3 278.14 -96.97 278.14 -96.63 278.14 C-96.58 277.43 -96.53 276.72 -96.48 275.99 C-96.41 275.07 -96.33 274.15 -96.25 273.2 C-96.18 272.29 -96.11 271.37 -96.04 270.43 C-95.91 269.67 -95.77 268.92 -95.63 268.14 C-94.97 267.81 -94.31 267.48 -93.63 267.14 C-93.2 264.59 -93.2 264.59 -93.07 261.64 C-92.73 256.24 -92.73 256.24 -91.63 255.14 C-91.35 252.82 -91.18 250.5 -91.01 248.17 C-90.88 247.5 -90.76 246.83 -90.63 246.14 C-89.97 245.81 -89.31 245.48 -88.63 245.14 C-88.2 242.62 -88.2 242.62 -88.07 239.7 C-87.72 234.33 -87.72 234.33 -86.63 232.14 C-86.36 229.81 -86.18 227.48 -86.01 225.14 C-85.88 224.48 -85.76 223.82 -85.63 223.14 C-84.97 222.81 -84.31 222.48 -83.63 222.14 C-83.2 219.85 -83.2 219.85 -83.07 217.2 C-82.72 212.33 -82.72 212.33 -81.63 210.14 C-81.36 207.81 -81.18 205.48 -81.01 203.14 C-80.88 202.48 -80.76 201.82 -80.63 201.14 C-79.97 200.81 -79.31 200.48 -78.63 200.14 C-78.2 197.62 -78.2 197.62 -78.07 194.7 C-77.72 189.33 -77.72 189.33 -76.63 187.14 C-76.45 185.79 -76.31 184.43 -76.19 183.08 C-75.91 181.13 -75.91 181.13 -75.63 179.14 C-74.97 178.81 -74.31 178.48 -73.63 178.14 C-73.2 175.62 -73.2 175.62 -73.07 172.7 C-72.72 167.33 -72.72 167.33 -71.63 165.14 C-71.36 163.1 -71.18 161.06 -71.01 159.02 C-70.63 157.14 -70.63 157.14 -68.63 155.14 C-68.17 152.71 -68.17 152.71 -68 150.02 C-67.93 149.11 -67.85 148.2 -67.78 147.26 C-67.7 146.21 -67.7 146.21 -67.63 145.14 C-67.3 145.14 -66.97 145.14 -66.63 145.14 C-66.56 144.13 -66.56 144.13 -66.48 143.09 C-66.41 142.2 -66.33 141.31 -66.25 140.39 C-66.18 139.51 -66.11 138.63 -66.04 137.72 C-65.63 135.12 -64.82 133.46 -63.63 131.14 C-63.18 129.01 -63.18 129.01 -63 126.89 C-62.82 125.03 -62.82 125.03 -62.63 123.14 C-62.3 123.14 -61.97 123.14 -61.63 123.14 C-61.56 121.98 -61.56 121.98 -61.48 120.8 C-61.41 119.8 -61.33 118.8 -61.25 117.77 C-61.15 116.27 -61.15 116.27 -61.04 114.74 C-60.63 112.14 -60.63 112.14 -58.63 110.14 C-58.17 107.94 -58.17 107.94 -58 105.52 C-57.93 104.7 -57.85 103.88 -57.78 103.04 C-57.7 102.1 -57.7 102.1 -57.63 101.14 C-57.3 101.14 -56.97 101.14 -56.63 101.14 C-56.56 99.86 -56.56 99.86 -56.48 98.55 C-56.41 97.45 -56.33 96.34 -56.25 95.2 C-56.18 94.1 -56.11 93 -56.04 91.86 C-55.84 90.52 -55.84 90.52 -55.63 89.14 C-54.97 88.81 -54.31 88.48 -53.63 88.14 C-53.16 85.78 -53.16 85.78 -53 83.08 C-52.93 82.16 -52.85 81.24 -52.78 80.29 C-52.7 79.23 -52.7 79.23 -52.63 78.14 C-52.3 78.14 -51.97 78.14 -51.63 78.14 C-51.56 77.08 -51.56 77.08 -51.48 75.99 C-51.41 75.07 -51.33 74.15 -51.25 73.2 C-51.18 72.29 -51.11 71.37 -51.04 70.43 C-50.91 69.67 -50.77 68.92 -50.63 68.14 C-49.97 67.81 -49.31 67.48 -48.63 67.14 C-48.2 64.59 -48.2 64.59 -48.07 61.64 C-47.73 56.24 -47.73 56.24 -46.63 55.14 C-46.35 52.82 -46.18 50.5 -46.01 48.17 C-45.88 47.5 -45.76 46.83 -45.63 46.14 C-44.97 45.81 -44.31 45.48 -43.63 45.14 C-43.2 42.62 -43.2 42.62 -43.07 39.7 C-42.72 34.33 -42.72 34.33 -41.63 32.14 C-41.4 30.6 -41.22 29.06 -41.07 27.52 C-40.94 26.29 -40.94 26.29 -40.81 25.04 C-40.75 24.41 -40.69 23.79 -40.63 23.14 C-39.97 23.14 -39.31 23.14 -38.63 23.14 C-38.51 22.07 -38.38 21 -38.25 19.89 C-37.73 16.76 -37.23 14.81 -35.63 12.14 C-34.64 12.14 -33.65 12.14 -32.63 12.14 C-32.26 11.34 -32.26 11.34 -31.88 10.52 C-27.67 2.52 -27.67 2.52 -23 0.83 C-21.89 0.6 -20.78 0.37 -19.63 0.14 C-14.53 -2.41 -5.36 -1.75 0 0 Z M189.37 272.14 C190.37 274.14 190.37 274.14 190.37 274.14 Z M182.37 279.14 C182.7 280.13 183.03 281.12 183.37 282.14 C184.03 281.81 184.69 281.48 185.37 281.14 C185.37 280.48 185.37 279.82 185.37 279.14 C184.38 279.14 183.39 279.14 182.37 279.14 Z M179.37 282.14 C179.37 283.13 179.37 284.12 179.37 285.14 C180.36 284.81 181.35 284.48 182.37 284.14 C182.04 283.48 181.71 282.82 181.37 282.14 C180.71 282.14 180.05 282.14 179.37 282.14 Z M699.37 602.14 C699.04 603.13 698.71 604.12 698.37 605.14 C699.36 605.14 700.35 605.14 701.37 605.14 C701.37 604.15 701.37 603.16 701.37 602.14 C700.71 602.14 700.05 602.14 699.37 602.14 Z M692.37 612.14 C693.37 614.14 693.37 614.14 693.37 614.14 Z M694.37 612.14 C695.37 614.14 695.37 614.14 695.37 614.14 Z M679.37 622.14 C680.37 624.14 680.37 624.14 680.37 624.14 Z " fill="#000000" transform="translate(359.62890625,639.859375)"/>
<path d="M0 0 C7.6 -0.05 15.2 -0.08 22.8 -0.1 C26.33 -0.11 29.85 -0.13 33.38 -0.15 C37.46 -0.18 41.53 -0.19 45.61 -0.2 C46.85 -0.21 48.1 -0.22 49.38 -0.23 C70.52 -0.23 70.52 -0.23 75.16 3.94 C75.77 4.62 76.38 5.3 77 6 C78.07 6.7 79.14 7.4 80.25 8.12 C81.61 9.05 81.61 9.05 83 10 C83 10.66 83 11.32 83 12 C83.66 12 84.32 12 85 12 C85 12.99 85 13.98 85 15 C85.66 15 86.32 15 87 15 C88.61 17.87 89.3 20.16 89.56 23.44 C89.77 25.85 90.01 28.05 90.61 30.4 C91.1 33.63 90.56 35.97 89.75 39.12 C89.37 40.68 89.37 40.68 88.98 42.26 C87.97 45.09 87.16 46.02 85 48 C84.58 48.78 84.15 49.55 83.72 50.35 C80.42 55.43 75.53 57.84 70 60 C64.16 61.14 58.19 60.84 52.27 60.72 C50.59 60.71 48.91 60.7 47.23 60.7 C42.84 60.68 38.45 60.61 34.06 60.54 C30.46 60.49 26.87 60.47 23.27 60.44 C15.85 60.4 8.43 60.34 1.01 60.22 C-0.3 60.21 -1.61 60.19 -2.95 60.17 C-6 60 -6 60 -8 59 C-8 58.34 -8 57.68 -8 57 C-8.7 56.92 -9.4 56.83 -10.12 56.75 C-15.39 55.38 -19.01 52.48 -22 48 C-22.66 47.34 -23.32 46.68 -24 46 C-27.08 40.05 -28.55 35.66 -27 29 C-26.8 26.45 -26.63 23.89 -26.48 21.33 C-25.91 18.57 -24.76 17.17 -23 15 C-22.84 14.28 -22.67 13.56 -22.5 12.81 C-22.34 12.21 -22.17 11.62 -22 11 C-21.01 10.67 -20.02 10.34 -19 10 C-19 9.34 -19 8.68 -19 8 C-18.26 7.75 -17.51 7.5 -16.75 7.25 C-13.91 6.21 -13.91 6.21 -12.31 3.94 C-8.69 0.9 -4.59 1.18 0 1 C0 0.67 0 0.34 0 0 Z M84 42 C84 42.99 84 43.98 84 45 C84.99 44.67 85.98 44.34 87 44 C87 43.34 87 42.68 87 42 C86.01 42 85.02 42 84 42 Z " fill="#000000" transform="translate(608,347)"/>
<path d="M0 0 C9.01 -0.05 18.01 -0.08 27.02 -0.1 C31.2 -0.11 35.38 -0.13 39.56 -0.15 C43.6 -0.17 47.64 -0.18 51.68 -0.19 C53.22 -0.19 54.76 -0.2 56.3 -0.21 C58.46 -0.23 60.62 -0.23 62.78 -0.23 C64.62 -0.23 64.62 -0.23 66.5 -0.24 C70.27 0.02 73.45 0.73 77 2 C77.5 2.99 77.5 2.99 78 4 C81.03 4.66 81.03 4.66 84 5 C84.5 6.49 84.5 6.49 85 8 C87.1 10.21 89.21 12.34 91.56 14.29 C93.55 16.65 93.98 18.88 94.69 21.88 C94.94 22.9 95.19 23.93 95.45 24.99 C95.96 27.76 96.19 30.19 96 33 C95.67 33.33 95.34 33.66 95 34 C94.91 35.73 94.91 35.73 94.81 37.5 C94.07 44.09 90.06 49.04 85.38 53.5 C83.17 54.89 81.56 55.62 79 56 C79 56.66 79 57.32 79 58 C70.98 60.21 63.27 60.29 55 60.27 C53.55 60.27 52.11 60.27 50.66 60.27 C47.65 60.27 44.63 60.27 41.62 60.26 C37.77 60.25 33.93 60.26 30.09 60.27 C27.11 60.28 24.13 60.27 21.15 60.27 C19.73 60.27 18.32 60.27 16.9 60.27 C-2.37 60.32 -2.37 60.32 -9.44 55.5 C-10.08 55.08 -10.71 54.65 -11.37 54.22 C-14.81 51.64 -16.13 48.81 -18 45 C-18.66 44.01 -19.32 43.02 -20 42 C-20.59 40.37 -21.13 38.72 -21.62 37.06 C-21.89 36.21 -22.15 35.35 -22.41 34.47 C-23 32 -23 32 -23 28 C-22.34 28 -21.68 28 -21 28 C-21.03 26.95 -21.03 26.95 -21.07 25.88 C-21.09 24.97 -21.11 24.06 -21.12 23.12 C-21.15 22.22 -21.17 21.32 -21.2 20.38 C-21 18 -21 18 -19 16 C-18.5 14.99 -18.01 13.98 -17.5 12.94 C-16 10 -16 10 -14 9 C-13.34 8.32 -12.68 7.64 -12 6.94 C-10 5 -10 5 -8 5 C-8 4.34 -8 3.68 -8 3 C-6.87 2.88 -5.73 2.75 -4.56 2.62 C-3.39 2.42 -2.21 2.21 -1 2 C-0.67 1.34 -0.34 0.68 0 0 Z M86 45 C86.33 45.99 86.66 46.98 87 48 C87.66 47.67 88.32 47.34 89 47 C89 46.34 89 45.68 89 45 C88.01 45 87.02 45 86 45 Z M81 51 C81 51.66 81 52.32 81 53 C81.66 52.67 82.32 52.34 83 52 C82.34 51.67 81.68 51.34 81 51 Z " fill="#000000" transform="translate(603,464)"/>
<path d="M0 0 C1.06 -0.01 1.06 -0.01 2.14 -0.02 C4.49 -0.04 6.83 -0.04 9.17 -0.05 C10.81 -0.05 12.44 -0.06 14.07 -0.07 C17.5 -0.08 20.93 -0.08 24.36 -0.08 C28.73 -0.08 33.11 -0.11 37.48 -0.14 C40.86 -0.16 44.23 -0.17 47.61 -0.17 C49.22 -0.17 50.83 -0.18 52.44 -0.19 C68.6 -0.33 68.6 -0.33 76.01 4.29 C76.87 4.82 77.72 5.34 78.6 5.89 C79.23 6.37 79.86 6.85 80.51 7.35 C81.48 8.08 81.48 8.08 82.48 8.83 C84.01 10.29 84.01 10.29 85.01 13.29 C85.49 13.73 85.97 14.16 86.46 14.61 C88.6 16.93 89.01 19.12 89.76 22.17 C90.15 23.71 90.15 23.71 90.56 25.28 C91.02 28.39 90.8 30.28 90.01 33.29 C89.74 34.62 89.74 34.62 89.47 35.97 C88.99 38.41 88.5 40.85 88.01 43.29 C87.35 43.29 86.69 43.29 86.01 43.29 C85.95 44.01 85.89 44.73 85.82 45.48 C84.15 51.27 78.14 55.39 73.01 58.29 C69.82 59.04 69.82 59.04 67.01 59.29 C66.41 59.46 65.82 59.62 65.21 59.8 C62.44 60.42 59.87 60.43 57.04 60.45 C55.83 60.46 54.63 60.47 53.39 60.48 C51.43 60.49 51.43 60.49 49.44 60.49 C48.78 60.5 48.11 60.5 47.42 60.5 C43.89 60.52 40.36 60.53 36.82 60.53 C33.2 60.54 29.58 60.56 25.96 60.59 C23.15 60.61 20.34 60.61 17.53 60.61 C15.56 60.62 13.58 60.64 11.61 60.66 C3.94 60.64 -2.72 59.76 -9.99 57.29 C-9.99 56.63 -9.99 55.97 -9.99 55.29 C-10.71 55.23 -11.43 55.17 -12.18 55.1 C-16.92 53.73 -19.33 50.29 -21.99 46.29 C-21.99 45.3 -21.99 44.31 -21.99 43.29 C-22.65 43.29 -23.31 43.29 -23.99 43.29 C-27.84 35.59 -27.76 25.57 -25.99 17.29 C-24.05 14.29 -24.05 14.29 -21.99 12.29 C-21.33 11.3 -20.67 10.31 -19.99 9.29 C-16.81 6.46 -13.88 4.03 -9.99 2.29 C-6.29 -0.17 -4.42 0.03 0 0 Z M76.01 50.29 C76.01 51.28 76.01 52.27 76.01 53.29 C77 52.96 77.99 52.63 79.01 52.29 C79.01 51.63 79.01 50.97 79.01 50.29 C78.02 50.29 77.03 50.29 76.01 50.29 Z " fill="#000000" transform="translate(607.99072265625,231.70947265625)"/>
<path d="M0 0 C7.88 -0.03 15.77 -0.04 23.65 -0.05 C26.33 -0.06 29.02 -0.07 31.7 -0.08 C35.55 -0.09 39.41 -0.09 43.26 -0.1 C45.06 -0.11 45.06 -0.11 46.9 -0.11 C48.02 -0.11 49.14 -0.11 50.29 -0.11 C51.28 -0.12 52.26 -0.12 53.27 -0.12 C64.23 0.36 74.87 4.46 82.38 12.56 C82.91 13.37 83.45 14.17 84 15 C84.54 15.72 85.07 16.44 85.62 17.19 C88.56 23.2 89.63 29.48 88 36 C87.8 37.23 87.8 37.23 87.59 38.48 C87.43 39.37 87.28 40.27 87.12 41.19 C86.98 42.03 86.84 42.87 86.7 43.73 C85.91 46.29 84.97 47.24 83 49 C82.59 49.78 82.17 50.57 81.75 51.38 C78.88 55.69 74.89 58.37 70 60 C67.47 60.11 64.96 60.17 62.43 60.18 C61.66 60.18 60.89 60.19 60.1 60.2 C57.55 60.22 55 60.23 52.45 60.24 C51.58 60.24 50.71 60.25 49.81 60.25 C45.2 60.27 40.59 60.29 35.98 60.3 C31.22 60.31 26.47 60.34 21.71 60.38 C18.05 60.41 14.39 60.41 10.72 60.42 C8.97 60.42 7.22 60.43 5.46 60.45 C3.01 60.48 0.55 60.48 -1.91 60.47 C-2.63 60.48 -3.35 60.5 -4.09 60.51 C-11.45 60.43 -16.65 56.88 -22 52 C-22.5 50.51 -22.5 50.51 -23 49 C-23.66 48.67 -24.32 48.34 -25 48 C-25 47.34 -25 46.68 -25 46 C-25.66 45.67 -26.32 45.34 -27 45 C-29.76 36.85 -29.68 27.35 -28 19 C-26.03 16.22 -26.03 16.22 -24 14 C-23.55 13.13 -23.09 12.27 -22.62 11.38 C-20.54 8.32 -18.32 7.52 -15 6 C-14.56 5.49 -14.12 4.98 -13.66 4.45 C-11.31 2.4 -9.45 2.56 -6.38 2.44 C-3.49 2.35 -3.49 2.35 -1 2 C-0.67 1.34 -0.34 0.68 0 0 Z M82 43 C83 45 83 45 83 45 Z M84 43 C85 45 85 45 85 45 Z M77 50 C77 50.99 77 51.98 77 53 C77.99 52.67 78.98 52.34 80 52 C80 51.34 80 50.68 80 50 C79.01 50 78.02 50 77 50 Z M69 55 C69 55.99 69 56.98 69 58 C69.99 57.67 70.98 57.34 72 57 C72 56.34 72 55.68 72 55 C71.01 55 70.02 55 69 55 Z " fill="#000000" transform="translate(610,579)"/>
<path d="M0 0 C5.35 -0.07 10.71 -0.13 16.06 -0.16 C17.87 -0.18 19.69 -0.2 21.51 -0.23 C40.87 -0.5 40.87 -0.5 50 3 C50 3.66 50 4.32 50 5 C51.32 5 52.64 5 54 5 C55.87 6.97 57.4 8.83 59 11 C59.45 11.53 59.9 12.06 60.36 12.61 C64.97 18.31 66.51 24.91 65.75 32.19 C65.02 35.89 64.13 39.4 63 43 C62.34 43 61.68 43 61 43 C60.94 43.72 60.88 44.44 60.81 45.19 C59.21 50.72 54.74 53.23 50 56 C49.5 56.99 49.5 56.99 49 58 C43.24 60.04 37.21 60.3 31.17 60.27 C30.37 60.27 29.57 60.27 28.75 60.27 C27.08 60.27 25.4 60.27 23.73 60.26 C21.18 60.25 18.62 60.26 16.06 60.27 C14.43 60.27 12.8 60.27 11.17 60.27 C10.03 60.27 10.03 60.27 8.86 60.28 C5.03 60.24 2.28 60.01 -1 58 C-3.33 57.32 -5.66 56.65 -8 56 C-8.66 55.67 -9.32 55.34 -10 55 C-10 54.34 -10 53.68 -10 53 C-10.8 52.73 -11.61 52.46 -12.44 52.19 C-13.28 51.8 -14.13 51.4 -15 51 C-15.5 49.51 -15.5 49.51 -16 48 C-16.99 47.67 -17.98 47.34 -19 47 C-20.06 44.19 -20.06 44.19 -21 41 C-21.35 40.32 -21.7 39.64 -22.06 38.94 C-24.24 34.44 -24.1 29.92 -24 25 C-23.34 24.67 -22.68 24.34 -22 24 C-21.8 22.02 -21.61 20.04 -21.41 18.07 C-20.8 15.01 -19.06 13.26 -17 11 C-16.67 10.01 -16.34 9.02 -16 8 C-14.68 7.32 -13.34 6.65 -12 6 C-11.42 5.32 -10.85 4.64 -10.25 3.94 C-6.97 1.11 -4.27 1.28 0 1 C0 0.67 0 0.34 0 0 Z M51 50 C51 50.99 51 51.98 51 53 C51.66 52.67 52.32 52.34 53 52 C52.34 51.34 51.68 50.68 51 50 Z " fill="#000000" transform="translate(633,697)"/>
<path d="M0 0 C21.78 0 43.56 0 66 0 C66 0.33 66 0.66 66 1 C44.22 1 22.44 1 0 1 C0 0.67 0 0.34 0 0 Z " fill="#FDFDFD" transform="translate(607,640)"/>
<path d="M0 0 C2.97 0 5.94 0 9 0 C9 0.33 9 0.66 9 1 C6.03 1 3.06 1 0 1 C0 0.67 0 0.34 0 0 Z " fill="#FDFDFD" transform="translate(1072,960)"/>
<path d="M0 0 C2.31 0 4.62 0 7 0 C7 0.33 7 0.66 7 1 C4.69 1 2.38 1 0 1 C0 0.67 0 0.34 0 0 Z " fill="#FDFDFD" transform="translate(249,465)"/>
<path d="M0 0 C1.98 0 3.96 0 6 0 C6 0.33 6 0.66 6 1 C4.02 1 2.04 1 0 1 C0 0.67 0 0.34 0 0 Z " fill="#FDFDFD" transform="translate(269,465)"/>
<path d="M0 0 C1.65 0 3.3 0 5 0 C5 0.33 5 0.66 5 1 C3.35 1 1.7 1 0 1 C0 0.67 0 0.34 0 0 Z " fill="#FDFDFD" transform="translate(259,350)"/>
<path d="M0 0 C0 3 0 3 0 3 Z " fill="#3E3D3D" transform="translate(589,238)"/>
<path d="" fill="#FDFDFD" transform="translate(0,0)"/>
<path d="" fill="#FDFDFD" transform="translate(0,0)"/>
<path d="" fill="#FDFDFD" transform="translate(0,0)"/>
<path d="" fill="#FDFDFD" transform="translate(0,0)"/>
<path d="" fill="#FDFDFD" transform="translate(0,0)"/>
<path d="" fill="#FDFDFD" transform="translate(0,0)"/>
<path d="" fill="#FDFDFD" transform="translate(0,0)"/>
<path d="" fill="#FDFDFD" transform="translate(0,0)"/>
<path d="" fill="#FDFDFD" transform="translate(0,0)"/>
<path d="" fill="#FDFDFD" transform="translate(0,0)"/>
<path d="" fill="#FDFDFD" transform="translate(0,0)"/>
<path d="" fill="#FDFDFD" transform="translate(0,0)"/>
<path d="" fill="#FDFDFD" transform="translate(0,0)"/>
<path d="" fill="#FDFDFD" transform="translate(0,0)"/>
<path d="" fill="#FDFDFD" transform="translate(0,0)"/>
<path d="" fill="#FDFDFD" transform="translate(0,0)"/>
<path d="" fill="#FDFDFD" transform="translate(0,0)"/>
<path d="" fill="#FDFDFD" transform="translate(0,0)"/>
<path d="" fill="#000000" transform="translate(0,0)"/>
<path d="" fill="#000000" transform="translate(0,0)"/>
<path d="" fill="#FDFDFD" transform="translate(0,0)"/>
<path d="M0 0 C2 1 2 1 2 1 Z " fill="#000000" transform="translate(1007,987)"/>
<path d="" fill="#FDFDFD" transform="translate(0,0)"/>
<path d="" fill="#FDFDFD" transform="translate(0,0)"/>
<path d="" fill="#FDFDFD" transform="translate(0,0)"/>
<path d="" fill="#FDFDFD" transform="translate(0,0)"/>
<path d="" fill="#FDFDFD" transform="translate(0,0)"/>
<path d="" fill="#FDFDFD" transform="translate(0,0)"/>
<path d="" fill="#FDFDFD" transform="translate(0,0)"/>
<path d="" fill="#FDFDFD" transform="translate(0,0)"/>
<path d="M0 0 C2 1 2 1 2 1 Z " fill="#FDFDFD" transform="translate(629,755)"/>
<path d="" fill="#FDFDFD" transform="translate(0,0)"/>
<path d="" fill="#000000" transform="translate(0,0)"/>
<path d="" fill="#FDFDFD" transform="translate(0,0)"/>
<path d="M0 0 C2 1 2 1 2 1 Z " fill="#3E3D3D" transform="translate(589,469)"/>
<path d="" fill="#FDFDFD" transform="translate(0,0)"/>
<path d="" fill="#FDFDFD" transform="translate(0,0)"/>
<path d="" fill="#FDFDFD" transform="translate(0,0)"/>
<path d="" fill="#FDFDFD" transform="translate(0,0)"/>
<path d="" fill="#FDFDFD" transform="translate(0,0)"/>
<path d="" fill="#FDFDFD" transform="translate(0,0)"/>
<path d="M0 0 C2 1 2 1 2 1 Z " fill="#000000" transform="translate(181,268)"/>
<path d="" fill="#FDFDFD" transform="translate(0,0)"/>
<path d="" fill="#FDFDFD" transform="translate(0,0)"/>
<path d="" fill="#FDFDFD" transform="translate(0,0)"/>
<path d="" fill="#FDFDFD" transform="translate(0,0)"/>
<path d="" fill="#FDFDFD" transform="translate(0,0)"/>
<path d="M0 0 C2 1 2 1 2 1 Z " fill="#FDFDFD" transform="translate(744,60)"/>
<path d="M0 0 C2 1 2 1 2 1 Z " fill="#FDFDFD" transform="translate(534,60)"/>
<path d="" fill="#000000" transform="translate(0,0)"/>
<path d="M0 0 C2 1 2 1 2 1 Z " fill="#000000" transform="translate(488,14)"/>
<path d="" fill="#FDFDFD" transform="translate(0,0)"/>
<path d="" fill="#FDFDFD" transform="translate(0,0)"/>
<path d="" fill="#000000" transform="translate(0,0)"/>
<path d="" fill="#000000" transform="translate(0,0)"/>
<path d="" fill="#000000" transform="translate(0,0)"/>
<path d="" fill="#7C7B7A" transform="translate(0,0)"/>
<path d="" fill="#000000" transform="translate(0,0)"/>
<path d="" fill="#FDFDFD" transform="translate(0,0)"/>
<path d="" fill="#FDFDFD" transform="translate(0,0)"/>
<path d="" fill="#000000" transform="translate(0,0)"/>
<path d="" fill="#FDFDFD" transform="translate(0,0)"/>
<path d="" fill="#FDFDFD" transform="translate(0,0)"/>
<path d="" fill="#000000" transform="translate(0,0)"/>
<path d="" fill="#000000" transform="translate(0,0)"/>
<path d="" fill="#FDFDFD" transform="translate(0,0)"/>
<path d="" fill="#000000" transform="translate(0,0)"/>
<path d="" fill="#FDFDFD" transform="translate(0,0)"/>
<path d="" fill="#000000" transform="translate(0,0)"/>
<path d="" fill="#FDFDFD" transform="translate(0,0)"/>
<path d="" fill="#000000" transform="translate(0,0)"/>
<path d="" fill="#FDFDFD" transform="translate(0,0)"/>
<path d="" fill="#FDFDFD" transform="translate(0,0)"/>
<path d="" fill="#000000" transform="translate(0,0)"/>
<path d="" fill="#000000" transform="translate(0,0)"/>
<path d="" fill="#000000" transform="translate(0,0)"/>
<path d="" fill="#000000" transform="translate(0,0)"/>
<path d="" fill="#000000" transform="translate(0,0)"/>
<path d="" fill="#000000" transform="translate(0,0)"/>
<path d="" fill="#7C7B7A" transform="translate(0,0)"/>
<path d="" fill="#7C7B7A" transform="translate(0,0)"/>
<path d="" fill="#7C7B7A" transform="translate(0,0)"/>
<path d="" fill="#7C7B7A" transform="translate(0,0)"/>
<path d="" fill="#000000" transform="translate(0,0)"/>
<path d="" fill="#000000" transform="translate(0,0)"/>
<path d="" fill="#FDFDFD" transform="translate(0,0)"/>
<path d="" fill="#000000" transform="translate(0,0)"/>
<path d="" fill="#000000" transform="translate(0,0)"/>
<path d="" fill="#000000" transform="translate(0,0)"/>
<path d="" fill="#000000" transform="translate(0,0)"/>
<path d="" fill="#000000" transform="translate(0,0)"/>
<path d="" fill="#FDFDFD" transform="translate(0,0)"/>
<path d="" fill="#FDFDFD" transform="translate(0,0)"/>
<path d="" fill="#000000" transform="translate(0,0)"/>
<path d="" fill="#000000" transform="translate(0,0)"/>
<path d="" fill="#FDFDFD" transform="translate(0,0)"/>
<path d="" fill="#000000" transform="translate(0,0)"/>
<path d="" fill="#000000" transform="translate(0,0)"/>
<path d="" fill="#000000" transform="translate(0,0)"/>
<path d="" fill="#FDFDFD" transform="translate(0,0)"/>
<path d="" fill="#000000" transform="translate(0,0)"/>
<path d="" fill="#000000" transform="translate(0,0)"/>
<path d="" fill="#FDFDFD" transform="translate(0,0)"/>
<path d="" fill="#000000" transform="translate(0,0)"/>
<path d="" fill="#000000" transform="translate(0,0)"/>
<path d="" fill="#FDFDFD" transform="translate(0,0)"/>
<path d="" fill="#000000" transform="translate(0,0)"/>
<path d="" fill="#000000" transform="translate(0,0)"/>
<path d="" fill="#000000" transform="translate(0,0)"/>
<path d="" fill="#000000" transform="translate(0,0)"/>
<path d="" fill="#000000" transform="translate(0,0)"/>
<path d="" fill="#FDFDFD" transform="translate(0,0)"/>
<path d="" fill="#000000" transform="translate(0,0)"/>
<path d="" fill="#000000" transform="translate(0,0)"/>
<path d="" fill="#000000" transform="translate(0,0)"/>
<path d="" fill="#000000" transform="translate(0,0)"/>
<path d="" fill="#000000" transform="translate(0,0)"/>
<path d="" fill="#000000" transform="translate(0,0)"/>
<path d="" fill="#FDFDFD" transform="translate(0,0)"/>
<path d="" fill="#000000" transform="translate(0,0)"/>
<path d="" fill="#000000" transform="translate(0,0)"/>
<path d="" fill="#000000" transform="translate(0,0)"/>
<path d="" fill="#000000" transform="translate(0,0)"/>
<path d="" fill="#000000" transform="translate(0,0)"/>
<path d="" fill="#FDFDFD" transform="translate(0,0)"/>
<path d="" fill="#000000" transform="translate(0,0)"/>
<path d="" fill="#000000" transform="translate(0,0)"/>
<path d="" fill="#000000" transform="translate(0,0)"/>
<path d="" fill="#000000" transform="translate(0,0)"/>
<path d="" fill="#7C7B7A" transform="translate(0,0)"/>
<path d="" fill="#7C7B7A" transform="translate(0,0)"/>
<path d="" fill="#000000" transform="translate(0,0)"/>
<path d="" fill="#000000" transform="translate(0,0)"/>
<path d="" fill="#000000" transform="translate(0,0)"/>
<path d="" fill="#000000" transform="translate(0,0)"/>
<path d="" fill="#000000" transform="translate(0,0)"/>
<path d="" fill="#FDFDFD" transform="translate(0,0)"/>
<path d="" fill="#000000" transform="translate(0,0)"/>
<path d="" fill="#000000" transform="translate(0,0)"/>
<path d="" fill="#000000" transform="translate(0,0)"/>
<path d="" fill="#000000" transform="translate(0,0)"/>
<path d="" fill="#000000" transform="translate(0,0)"/>
<path d="" fill="#000000" transform="translate(0,0)"/>
<path d="" fill="#000000" transform="translate(0,0)"/>
<path d="" fill="#FDFDFD" transform="translate(0,0)"/>
<path d="" fill="#000000" transform="translate(0,0)"/>
<path d="" fill="#000000" transform="translate(0,0)"/>
<path d="" fill="#FDFDFD" transform="translate(0,0)"/>
<path d="" fill="#000000" transform="translate(0,0)"/>
<path d="" fill="#000000" transform="translate(0,0)"/>
<path d="" fill="#000000" transform="translate(0,0)"/>
<path d="" fill="#000000" transform="translate(0,0)"/>
<path d="" fill="#FDFDFD" transform="translate(0,0)"/>
<path d="" fill="#000000" transform="translate(0,0)"/>
<path d="" fill="#000000" transform="translate(0,0)"/>
<path d="" fill="#7C7B7A" transform="translate(0,0)"/>
<path d="" fill="#000000" transform="translate(0,0)"/>
<path d="" fill="#000000" transform="translate(0,0)"/>
<path d="" fill="#000000" transform="translate(0,0)"/>
<path d="" fill="#FDFDFD" transform="translate(0,0)"/>
<path d="" fill="#000000" transform="translate(0,0)"/>
<path d="" fill="#000000" transform="translate(0,0)"/>
<path d="" fill="#000000" transform="translate(0,0)"/>
<path d="" fill="#000000" transform="translate(0,0)"/>
<path d="" fill="#000000" transform="translate(0,0)"/>
<path d="" fill="#FDFDFD" transform="translate(0,0)"/>
<path d="" fill="#000000" transform="translate(0,0)"/>
<path d="" fill="#000000" transform="translate(0,0)"/>
<path d="" fill="#FDFDFD" transform="translate(0,0)"/>
<path d="" fill="#000000" transform="translate(0,0)"/>
<path d="" fill="#FDFDFD" transform="translate(0,0)"/>
<path d="" fill="#FDFDFD" transform="translate(0,0)"/>
<path d="" fill="#000000" transform="translate(0,0)"/>
<path d="" fill="#FDFDFD" transform="translate(0,0)"/>
<path d="" fill="#000000" transform="translate(0,0)"/>
<path d="" fill="#000000" transform="translate(0,0)"/>
<path d="" fill="#FDFDFD" transform="translate(0,0)"/>
<path d="" fill="#000000" transform="translate(0,0)"/>
<path d="" fill="#FDFDFD" transform="translate(0,0)"/>
<path d="" fill="#FDFDFD" transform="translate(0,0)"/>
<path d="" fill="#FDFDFD" transform="translate(0,0)"/>
<path d="" fill="#7C7B7A" transform="translate(0,0)"/>
<path d="" fill="#FDFDFD" transform="translate(0,0)"/>
<path d="" fill="#FDFDFD" transform="translate(0,0)"/>
<path d="" fill="#7C7B7A" transform="translate(0,0)"/>
<path d="" fill="#000000" transform="translate(0,0)"/>
<path d="" fill="#000000" transform="translate(0,0)"/>
<path d="" fill="#FDFDFD" transform="translate(0,0)"/>
<path d="" fill="#000000" transform="translate(0,0)"/>
<path d="" fill="#FDFDFD" transform="translate(0,0)"/>
<path d="" fill="#000000" transform="translate(0,0)"/>
<path d="" fill="#000000" transform="translate(0,0)"/>
<path d="" fill="#FDFDFD" transform="translate(0,0)"/>
<path d="" fill="#000000" transform="translate(0,0)"/>
<path d="" fill="#FDFDFD" transform="translate(0,0)"/>
<path d="" fill="#000000" transform="translate(0,0)"/>
<path d="" fill="#000000" transform="translate(0,0)"/>
<path d="" fill="#000000" transform="translate(0,0)"/>
<path d="" fill="#000000" transform="translate(0,0)"/>
<path d="" fill="#FDFDFD" transform="translate(0,0)"/>
<path d="" fill="#000000" transform="translate(0,0)"/>
<path d="" fill="#000000" transform="translate(0,0)"/>
<path d="" fill="#FDFDFD" transform="translate(0,0)"/>
<path d="" fill="#FDFDFD" transform="translate(0,0)"/>
<path d="" fill="#7C7B7A" transform="translate(0,0)"/>
<path d="" fill="#FDFDFD" transform="translate(0,0)"/>
<path d="" fill="#000000" transform="translate(0,0)"/>
<path d="" fill="#000000" transform="translate(0,0)"/>
<path d="" fill="#000000" transform="translate(0,0)"/>
<path d="" fill="#000000" transform="translate(0,0)"/>
<path d="" fill="#FDFDFD" transform="translate(0,0)"/>
<path d="" fill="#FDFDFD" transform="translate(0,0)"/>
<path d="" fill="#000000" transform="translate(0,0)"/>
<path d="" fill="#000000" transform="translate(0,0)"/>
<path d="" fill="#000000" transform="translate(0,0)"/>
<path d="" fill="#FDFDFD" transform="translate(0,0)"/>
<path d="" fill="#000000" transform="translate(0,0)"/>
<path d="" fill="#FDFDFD" transform="translate(0,0)"/>
<path d="" fill="#FDFDFD" transform="translate(0,0)"/>
<path d="" fill="#FDFDFD" transform="translate(0,0)"/>
<path d="" fill="#000000" transform="translate(0,0)"/>
<path d="" fill="#FDFDFD" transform="translate(0,0)"/>
<path d="" fill="#000000" transform="translate(0,0)"/>
<path d="" fill="#000000" transform="translate(0,0)"/>
<path d="" fill="#FDFDFD" transform="translate(0,0)"/>
<path d="" fill="#000000" transform="translate(0,0)"/>
<path d="" fill="#000000" transform="translate(0,0)"/>
<path d="" fill="#000000" transform="translate(0,0)"/>
<path d="" fill="#000000" transform="translate(0,0)"/>
<path d="" fill="#000000" transform="translate(0,0)"/>
<path d="" fill="#000000" transform="translate(0,0)"/>
<path d="" fill="#000000" transform="translate(0,0)"/>
<path d="" fill="#000000" transform="translate(0,0)"/>
<path d="" fill="#000000" transform="translate(0,0)"/>
<path d="" fill="#000000" transform="translate(0,0)"/>
<path d="" fill="#000000" transform="translate(0,0)"/>
<path d="" fill="#000000" transform="translate(0,0)"/>
<path d="" fill="#000000" transform="translate(0,0)"/>
<path d="" fill="#000000" transform="translate(0,0)"/>
<path d="" fill="#000000" transform="translate(0,0)"/>
</svg>
