<?xml version="1.0" standalone="no"?>
<!DOCTYPE svg PUBLIC "-//W3C//DTD SVG 20010904//EN"
 "http://www.w3.org/TR/2001/REC-SVG-20010904/DTD/svg10.dtd">
<svg version="1.0" xmlns="http://www.w3.org/2000/svg"
 width="64.000000pt" height="64.000000pt" viewBox="0 0 64.000000 64.000000"
 preserveAspectRatio="xMidYMid meet">

<g transform="translate(0.000000,64.000000) scale(0.100000,-0.100000)"
fill="#000000" stroke="none">
<path d="M117 574 c-4 -4 -7 -58 -7 -120 0 -141 9 -156 96 -164 58 -5 59 -5
58 -35 -8 -158 -8 -158 16 -177 28 -23 52 -23 81 1 22 18 23 25 21 115 l-3 96
55 0 c84 0 94 16 98 155 3 79 3 80 35 95 44 20 36 34 -21 38 -44 3 -47 2 -45
-20 1 -13 1 -49 1 -80 l-2 -58 -180 0 -181 0 3 63 3 62 145 0 145 0 3 -28 c5
-42 27 -27 27 19 l0 39 -171 3 c-93 1 -173 -1 -177 -4z m360 -200 c12 -31 -11
-49 -68 -52 -77 -5 -81 -11 -79 -111 3 -112 3 -111 -22 -111 -20 0 -21 3 -15
94 8 112 0 123 -82 128 -57 3 -80 21 -68 52 6 14 28 16 167 16 139 0 161 -2
167 -16z"/>
</g>
</svg>
